<svg xmlns="http://www.w3.org/2000/svg" xmlns:xlink="http://www.w3.org/1999/xlink" viewBox="0 0 1153.99 662.04"><defs><style>.cls-1{fill:none;}.cls-2{clip-path:url(#clip-path);}.cls-3,.cls-4{opacity:0.3;}.cls-4{fill:#85bbe0;}</style><clipPath id="clip-path"><path class="cls-1" d="M764,662.06H890.79L615,46.52H488.17L212.34,662.06Z"/></clipPath></defs><title>Resurs 13</title><g id="Lager_2" data-name="Lager 2"><g id="Layer_1" data-name="Layer 1"><g class="cls-2"><g class="cls-3"><polygon class="cls-4" points="301.04 662.04 280.64 616.52 271.27 616.52 250.87 662.04 291.67 662.04 301.04 662.04"/><polygon class="cls-4" points="351.21 662.04 330.82 616.52 321.44 616.52 301.04 662.04 341.84 662.04 351.21 662.04"/><polygon class="cls-4" points="401.39 662.04 380.99 616.52 371.61 616.52 351.21 662.04 392.01 662.04 401.39 662.04"/><polygon class="cls-4" points="451.56 662.04 431.16 616.52 421.79 616.52 401.39 662.04 442.19 662.04 451.56 662.04"/><polygon class="cls-4" points="501.74 662.04 481.34 616.52 471.96 616.52 451.56 662.04 492.36 662.04 501.74 662.04"/><polygon class="cls-4" points="551.91 662.04 531.51 616.52 522.13 616.52 501.74 662.04 542.53 662.04 551.91 662.04"/><polygon class="cls-4" points="602.08 662.04 581.68 616.52 572.31 616.52 551.91 662.04 592.71 662.04 602.08 662.04"/><polygon class="cls-4" points="652.26 662.04 631.86 616.52 622.48 616.52 602.08 662.04 642.88 662.04 652.26 662.04"/><polygon class="cls-4" points="702.43 662.04 682.03 616.52 672.65 616.52 652.26 662.04 693.05 662.04 702.43 662.04"/><polygon class="cls-4" points="752.6 662.04 732.2 616.52 722.83 616.52 702.43 662.04 743.23 662.04 752.6 662.04"/><polygon class="cls-4" points="802.78 662.04 782.38 616.52 773 616.52 752.6 662.04 793.4 662.04 802.78 662.04"/><polygon class="cls-4" points="852.95 662.04 832.55 616.52 823.17 616.52 802.78 662.04 843.57 662.04 852.95 662.04"/><polygon class="cls-4" points="903.12 662.04 882.73 616.52 873.35 616.52 852.95 662.04 893.75 662.04 903.12 662.04"/><polygon class="cls-4" points="953.3 662.04 932.9 616.52 923.52 616.52 903.12 662.04 943.92 662.04 953.3 662.04"/><polygon class="cls-4" points="1003.47 662.04 983.07 616.52 973.7 616.52 953.3 662.04 994.09 662.04 1003.47 662.04"/><polygon class="cls-4" points="1053.64 662.04 1033.24 616.52 1023.87 616.52 1003.47 662.04 1044.27 662.04 1053.64 662.04"/><polygon class="cls-4" points="1153.99 662.04 1133.59 616.52 1124.22 616.52 1103.82 662.04 1144.62 662.04 1153.99 662.04"/><polygon class="cls-4" points="301.04 605.97 280.64 560.45 271.27 560.45 250.87 605.97 291.67 605.97 301.04 605.97"/><polygon class="cls-4" points="351.21 605.97 330.82 560.45 321.44 560.45 301.04 605.97 341.84 605.97 351.21 605.97"/><polygon class="cls-4" points="401.39 605.97 380.99 560.45 371.61 560.45 351.21 605.97 392.01 605.97 401.39 605.97"/><polygon class="cls-4" points="451.56 605.97 431.16 560.45 421.79 560.45 401.39 605.97 442.19 605.97 451.56 605.97"/><polygon class="cls-4" points="501.74 605.97 481.34 560.45 471.96 560.45 451.56 605.97 492.36 605.97 501.74 605.97"/><polygon class="cls-4" points="551.91 605.97 531.51 560.45 522.13 560.45 501.74 605.97 542.53 605.97 551.91 605.97"/><polygon class="cls-4" points="602.08 605.97 581.68 560.45 572.31 560.45 551.91 605.97 592.71 605.97 602.08 605.97"/><polygon class="cls-4" points="652.26 605.97 631.86 560.45 622.48 560.45 602.08 605.97 642.88 605.97 652.26 605.97"/><polygon class="cls-4" points="702.43 605.97 682.03 560.45 672.65 560.45 652.26 605.97 693.05 605.97 702.43 605.97"/><polygon class="cls-4" points="752.6 605.97 732.2 560.45 722.83 560.45 702.43 605.97 743.23 605.97 752.6 605.97"/><polygon class="cls-4" points="802.78 605.97 782.38 560.45 773 560.45 752.6 605.97 793.4 605.97 802.78 605.97"/><polygon class="cls-4" points="852.95 605.97 832.55 560.45 823.17 560.45 802.78 605.97 843.57 605.97 852.95 605.97"/><polygon class="cls-4" points="903.12 605.97 882.73 560.45 873.35 560.45 852.95 605.97 893.75 605.97 903.12 605.97"/><polygon class="cls-4" points="953.3 605.97 932.9 560.45 923.52 560.45 903.12 605.97 943.92 605.97 953.3 605.97"/><polygon class="cls-4" points="1003.47 605.97 983.07 560.45 973.7 560.45 953.3 605.97 994.09 605.97 1003.47 605.97"/><polygon class="cls-4" points="1053.64 605.97 1033.24 560.45 1023.87 560.45 1003.47 605.97 1044.27 605.97 1053.64 605.97"/><polygon class="cls-4" points="1153.99 605.97 1133.59 560.45 1124.22 560.45 1103.82 605.97 1144.62 605.97 1153.99 605.97"/><polygon class="cls-4" points="50.17 662.04 29.77 616.52 20.4 616.52 0 662.04 40.8 662.04 50.17 662.04"/><polygon class="cls-4" points="100.35 662.04 79.95 616.52 70.57 616.52 50.17 662.04 90.97 662.04 100.35 662.04"/><polygon class="cls-4" points="150.52 662.04 130.12 616.52 120.75 616.52 100.35 662.04 141.14 662.04 150.52 662.04"/><polygon class="cls-4" points="200.69 662.04 180.29 616.52 170.92 616.52 150.52 662.04 191.32 662.04 200.69 662.04"/><polygon class="cls-4" points="250.87 662.04 230.47 616.52 221.09 616.52 200.69 662.04 241.49 662.04 250.87 662.04"/><polygon class="cls-4" points="50.17 605.97 29.77 560.45 20.4 560.45 0 605.97 40.8 605.97 50.17 605.97"/><polygon class="cls-4" points="100.35 605.97 79.95 560.45 70.57 560.45 50.17 605.97 90.97 605.97 100.35 605.97"/><polygon class="cls-4" points="150.52 605.97 130.12 560.45 120.75 560.45 100.35 605.97 141.14 605.97 150.52 605.97"/><polygon class="cls-4" points="200.69 605.97 180.29 560.45 170.92 560.45 150.52 605.97 191.32 605.97 200.69 605.97"/><polygon class="cls-4" points="250.87 605.97 230.47 560.45 221.09 560.45 200.69 605.97 241.49 605.97 250.87 605.97"/><polygon class="cls-4" points="301.04 550.12 280.64 504.6 271.27 504.6 250.87 550.12 291.67 550.12 301.04 550.12"/><polygon class="cls-4" points="351.21 550.12 330.82 504.6 321.44 504.6 301.04 550.12 341.84 550.12 351.21 550.12"/><polygon class="cls-4" points="401.39 550.12 380.99 504.6 371.61 504.6 351.21 550.12 392.01 550.12 401.39 550.12"/><polygon class="cls-4" points="451.56 550.12 431.16 504.6 421.79 504.6 401.39 550.12 442.19 550.12 451.56 550.12"/><polygon class="cls-4" points="501.74 550.12 481.34 504.6 471.96 504.6 451.56 550.12 492.36 550.12 501.74 550.12"/><polygon class="cls-4" points="551.91 550.12 531.51 504.6 522.13 504.6 501.74 550.12 542.53 550.12 551.91 550.12"/><polygon class="cls-4" points="602.08 550.12 581.68 504.6 572.31 504.6 551.91 550.12 592.71 550.12 602.08 550.12"/><polygon class="cls-4" points="652.26 550.12 631.86 504.6 622.48 504.6 602.08 550.12 642.88 550.12 652.26 550.12"/><polygon class="cls-4" points="702.43 550.12 682.03 504.6 672.65 504.6 652.26 550.12 693.05 550.12 702.43 550.12"/><polygon class="cls-4" points="752.6 550.12 732.2 504.6 722.83 504.6 702.43 550.12 743.23 550.12 752.6 550.12"/><polygon class="cls-4" points="802.78 550.12 782.38 504.6 773 504.6 752.6 550.12 793.4 550.12 802.78 550.12"/><polygon class="cls-4" points="852.95 550.12 832.55 504.6 823.17 504.6 802.78 550.12 843.57 550.12 852.95 550.12"/><polygon class="cls-4" points="903.12 550.12 882.73 504.6 873.35 504.6 852.95 550.12 893.75 550.12 903.12 550.12"/><polygon class="cls-4" points="953.3 550.12 932.9 504.6 923.52 504.6 903.12 550.12 943.92 550.12 953.3 550.12"/><polygon class="cls-4" points="1003.47 550.12 983.07 504.6 973.7 504.6 953.3 550.12 994.09 550.12 1003.47 550.12"/><polygon class="cls-4" points="301.04 494.05 280.64 448.53 271.27 448.53 250.87 494.05 291.67 494.05 301.04 494.05"/><polygon class="cls-4" points="351.21 494.05 330.82 448.53 321.44 448.53 301.04 494.05 341.84 494.05 351.21 494.05"/><polygon class="cls-4" points="401.39 494.05 380.99 448.53 371.61 448.53 351.21 494.05 392.01 494.05 401.39 494.05"/><polygon class="cls-4" points="451.56 494.05 431.16 448.53 421.79 448.53 401.39 494.05 442.19 494.05 451.56 494.05"/><polygon class="cls-4" points="501.74 494.05 481.34 448.53 471.96 448.53 451.56 494.05 492.36 494.05 501.74 494.05"/><polygon class="cls-4" points="551.91 494.05 531.51 448.53 522.13 448.53 501.74 494.05 542.53 494.05 551.91 494.05"/><polygon class="cls-4" points="602.08 494.05 581.68 448.53 572.31 448.53 551.91 494.05 592.71 494.05 602.08 494.05"/><polygon class="cls-4" points="652.26 494.05 631.86 448.53 622.48 448.53 602.08 494.05 642.88 494.05 652.26 494.05"/><polygon class="cls-4" points="702.43 494.05 682.03 448.53 672.65 448.53 652.26 494.05 693.05 494.05 702.43 494.05"/><polygon class="cls-4" points="752.6 494.05 732.2 448.53 722.83 448.53 702.43 494.05 743.23 494.05 752.6 494.05"/><polygon class="cls-4" points="802.78 494.05 782.38 448.53 773 448.53 752.6 494.05 793.4 494.05 802.78 494.05"/><polygon class="cls-4" points="852.95 494.05 832.55 448.53 823.17 448.53 802.78 494.05 843.57 494.05 852.95 494.05"/><polygon class="cls-4" points="903.12 494.05 882.73 448.53 873.35 448.53 852.95 494.05 893.75 494.05 903.12 494.05"/><polygon class="cls-4" points="953.3 494.05 932.9 448.53 923.52 448.53 903.12 494.05 943.92 494.05 953.3 494.05"/><polygon class="cls-4" points="1003.47 494.05 983.07 448.53 973.7 448.53 953.3 494.05 994.09 494.05 1003.47 494.05"/><polygon class="cls-4" points="301.04 437.99 280.64 392.47 271.27 392.47 250.87 437.99 291.67 437.99 301.04 437.99"/><polygon class="cls-4" points="351.21 437.99 330.82 392.47 321.44 392.47 301.04 437.99 341.84 437.99 351.21 437.99"/><polygon class="cls-4" points="401.39 437.99 380.99 392.47 371.61 392.47 351.21 437.99 392.01 437.99 401.39 437.99"/><polygon class="cls-4" points="451.56 437.99 431.16 392.47 421.79 392.47 401.39 437.99 442.19 437.99 451.56 437.99"/><polygon class="cls-4" points="501.74 437.99 481.34 392.47 471.96 392.47 451.56 437.99 492.36 437.99 501.74 437.99"/><polygon class="cls-4" points="551.91 437.99 531.51 392.47 522.13 392.47 501.74 437.99 542.53 437.99 551.91 437.99"/><polygon class="cls-4" points="602.08 437.99 581.68 392.47 572.31 392.47 551.91 437.99 592.71 437.99 602.08 437.99"/><polygon class="cls-4" points="652.26 437.99 631.86 392.47 622.48 392.47 602.08 437.99 642.88 437.99 652.26 437.99"/><polygon class="cls-4" points="702.43 437.99 682.03 392.47 672.65 392.47 652.26 437.99 693.05 437.99 702.43 437.99"/><polygon class="cls-4" points="752.6 437.99 732.2 392.47 722.83 392.47 702.43 437.99 743.23 437.99 752.6 437.99"/><polygon class="cls-4" points="802.78 437.99 782.38 392.47 773 392.47 752.6 437.99 793.4 437.99 802.78 437.99"/><polygon class="cls-4" points="852.95 437.99 832.55 392.47 823.17 392.47 802.78 437.99 843.57 437.99 852.95 437.99"/><polygon class="cls-4" points="903.12 437.99 882.73 392.47 873.35 392.47 852.95 437.99 893.75 437.99 903.12 437.99"/><polygon class="cls-4" points="953.3 437.99 932.9 392.47 923.52 392.47 903.12 437.99 943.92 437.99 953.3 437.99"/><polygon class="cls-4" points="301.04 381.92 280.64 336.4 271.27 336.4 250.87 381.92 291.67 381.92 301.04 381.92"/><polygon class="cls-4" points="351.21 381.92 330.82 336.4 321.44 336.4 301.04 381.92 341.84 381.92 351.21 381.92"/><polygon class="cls-4" points="401.39 381.92 380.99 336.4 371.61 336.4 351.21 381.92 392.01 381.92 401.39 381.92"/><polygon class="cls-4" points="451.56 381.92 431.16 336.4 421.79 336.4 401.39 381.92 442.19 381.92 451.56 381.92"/><polygon class="cls-4" points="501.74 381.92 481.34 336.4 471.96 336.4 451.56 381.92 492.36 381.92 501.74 381.92"/><polygon class="cls-4" points="551.91 381.92 531.51 336.4 522.13 336.4 501.74 381.92 542.53 381.92 551.91 381.92"/><polygon class="cls-4" points="602.08 381.92 581.68 336.4 572.31 336.4 551.91 381.92 592.71 381.92 602.08 381.92"/><polygon class="cls-4" points="652.26 381.92 631.86 336.4 622.48 336.4 602.08 381.92 642.88 381.92 652.26 381.92"/><polygon class="cls-4" points="702.43 381.92 682.03 336.4 672.65 336.4 652.26 381.92 693.05 381.92 702.43 381.92"/><polygon class="cls-4" points="752.6 381.92 732.2 336.4 722.83 336.4 702.43 381.92 743.23 381.92 752.6 381.92"/><polygon class="cls-4" points="802.78 381.92 782.38 336.4 773 336.4 752.6 381.92 793.4 381.92 802.78 381.92"/><polygon class="cls-4" points="852.95 381.92 832.55 336.4 823.17 336.4 802.78 381.92 843.57 381.92 852.95 381.92"/><polygon class="cls-4" points="903.12 381.92 882.73 336.4 873.35 336.4 852.95 381.92 893.75 381.92 903.12 381.92"/><polygon class="cls-4" points="953.3 381.92 932.9 336.4 923.52 336.4 903.12 381.92 943.92 381.92 953.3 381.92"/><polygon class="cls-4" points="301.04 325.85 280.64 280.33 271.27 280.33 250.87 325.85 291.67 325.85 301.04 325.85"/><polygon class="cls-4" points="351.21 325.85 330.82 280.33 321.44 280.33 301.04 325.85 341.84 325.85 351.21 325.85"/><polygon class="cls-4" points="401.39 325.85 380.99 280.33 371.61 280.33 351.21 325.85 392.01 325.85 401.39 325.85"/><polygon class="cls-4" points="451.56 325.85 431.16 280.33 421.79 280.33 401.39 325.85 442.19 325.85 451.56 325.85"/><polygon class="cls-4" points="501.74 325.85 481.34 280.33 471.96 280.33 451.56 325.85 492.36 325.85 501.74 325.85"/><polygon class="cls-4" points="551.91 325.85 531.51 280.33 522.13 280.33 501.74 325.85 542.53 325.85 551.91 325.85"/><polygon class="cls-4" points="602.08 325.85 581.68 280.33 572.31 280.33 551.91 325.85 592.71 325.85 602.08 325.85"/><polygon class="cls-4" points="652.26 325.85 631.86 280.33 622.48 280.33 602.08 325.85 642.88 325.85 652.26 325.85"/><polygon class="cls-4" points="702.43 325.85 682.03 280.33 672.65 280.33 652.26 325.85 693.05 325.85 702.43 325.85"/><polygon class="cls-4" points="752.6 325.85 732.2 280.33 722.83 280.33 702.43 325.85 743.23 325.85 752.6 325.85"/><polygon class="cls-4" points="802.78 325.85 782.38 280.33 773 280.33 752.6 325.85 793.4 325.85 802.78 325.85"/><polygon class="cls-4" points="852.95 325.85 832.55 280.33 823.17 280.33 802.78 325.85 843.57 325.85 852.95 325.85"/><polygon class="cls-4" points="903.12 325.85 882.73 280.33 873.35 280.33 852.95 325.85 893.75 325.85 903.12 325.85"/><polygon class="cls-4" points="301.04 269.79 280.64 224.27 271.27 224.27 250.87 269.79 291.67 269.79 301.04 269.79"/><polygon class="cls-4" points="351.21 269.79 330.82 224.27 321.44 224.27 301.04 269.79 341.84 269.79 351.21 269.79"/><polygon class="cls-4" points="401.39 269.79 380.99 224.27 371.61 224.27 351.21 269.79 392.01 269.79 401.39 269.79"/><polygon class="cls-4" points="451.56 269.79 431.16 224.27 421.79 224.27 401.39 269.79 442.19 269.79 451.56 269.79"/><polygon class="cls-4" points="501.74 269.79 481.34 224.27 471.96 224.27 451.56 269.79 492.36 269.79 501.74 269.79"/><polygon class="cls-4" points="551.91 269.79 531.51 224.27 522.13 224.27 501.74 269.79 542.53 269.79 551.91 269.79"/><polygon class="cls-4" points="602.08 269.79 581.68 224.27 572.31 224.27 551.91 269.79 592.71 269.79 602.08 269.79"/><polygon class="cls-4" points="652.26 269.79 631.86 224.27 622.48 224.27 602.08 269.79 642.88 269.79 652.26 269.79"/><polygon class="cls-4" points="702.43 269.79 682.03 224.27 672.65 224.27 652.26 269.79 693.05 269.79 702.43 269.79"/><polygon class="cls-4" points="752.6 269.79 732.2 224.27 722.83 224.27 702.43 269.79 743.23 269.79 752.6 269.79"/><polygon class="cls-4" points="802.78 269.79 782.38 224.27 773 224.27 752.6 269.79 793.4 269.79 802.78 269.79"/><polygon class="cls-4" points="852.95 269.79 832.55 224.27 823.17 224.27 802.78 269.79 843.57 269.79 852.95 269.79"/><polygon class="cls-4" points="903.12 269.79 882.73 224.27 873.35 224.27 852.95 269.79 893.75 269.79 903.12 269.79"/><polygon class="cls-4" points="1153.99 269.79 1133.59 224.27 1124.22 224.27 1103.82 269.79 1144.62 269.79 1153.99 269.79"/><polygon class="cls-4" points="301.04 213.72 280.64 168.2 271.27 168.2 250.87 213.72 291.67 213.72 301.04 213.72"/><polygon class="cls-4" points="351.21 213.72 330.82 168.2 321.44 168.2 301.04 213.72 341.84 213.72 351.21 213.72"/><polygon class="cls-4" points="401.39 213.72 380.99 168.2 371.61 168.2 351.21 213.72 392.01 213.72 401.39 213.72"/><polygon class="cls-4" points="451.56 213.72 431.16 168.2 421.79 168.2 401.39 213.72 442.19 213.72 451.56 213.72"/><polygon class="cls-4" points="501.74 213.72 481.34 168.2 471.96 168.2 451.56 213.72 492.36 213.72 501.74 213.72"/><polygon class="cls-4" points="551.91 213.72 531.51 168.2 522.13 168.2 501.74 213.72 542.53 213.72 551.91 213.72"/><polygon class="cls-4" points="602.08 213.72 581.68 168.2 572.31 168.2 551.91 213.72 592.71 213.72 602.08 213.72"/><polygon class="cls-4" points="652.26 213.72 631.86 168.2 622.48 168.2 602.08 213.72 642.88 213.72 652.26 213.72"/><polygon class="cls-4" points="702.43 213.72 682.03 168.2 672.65 168.2 652.26 213.72 693.05 213.72 702.43 213.72"/><polygon class="cls-4" points="752.6 213.72 732.2 168.2 722.83 168.2 702.43 213.72 743.23 213.72 752.6 213.72"/><polygon class="cls-4" points="802.78 213.72 782.38 168.2 773 168.2 752.6 213.72 793.4 213.72 802.78 213.72"/><polygon class="cls-4" points="852.95 213.72 832.55 168.2 823.17 168.2 802.78 213.72 843.57 213.72 852.95 213.72"/><polygon class="cls-4" points="301.04 157.65 280.64 112.13 271.27 112.13 250.87 157.65 291.67 157.65 301.04 157.65"/><polygon class="cls-4" points="351.21 157.65 330.82 112.13 321.44 112.13 301.04 157.65 341.84 157.65 351.21 157.65"/><polygon class="cls-4" points="401.39 157.65 380.99 112.13 371.61 112.13 351.21 157.65 392.01 157.65 401.39 157.65"/><polygon class="cls-4" points="451.56 157.65 431.16 112.13 421.79 112.13 401.39 157.65 442.19 157.65 451.56 157.65"/><polygon class="cls-4" points="501.74 157.65 481.34 112.13 471.96 112.13 451.56 157.65 492.36 157.65 501.74 157.65"/><polygon class="cls-4" points="551.91 157.65 531.51 112.13 522.13 112.13 501.74 157.65 542.53 157.65 551.91 157.65"/><polygon class="cls-4" points="602.08 157.65 581.68 112.13 572.31 112.13 551.91 157.65 592.71 157.65 602.08 157.65"/><polygon class="cls-4" points="652.26 157.65 631.86 112.13 622.48 112.13 602.08 157.65 642.88 157.65 652.26 157.65"/><polygon class="cls-4" points="702.43 157.65 682.03 112.13 672.65 112.13 652.26 157.65 693.05 157.65 702.43 157.65"/><polygon class="cls-4" points="752.6 157.65 732.2 112.13 722.83 112.13 702.43 157.65 743.23 157.65 752.6 157.65"/><polygon class="cls-4" points="802.78 157.65 782.38 112.13 773 112.13 752.6 157.65 793.4 157.65 802.78 157.65"/><polygon class="cls-4" points="301.04 101.59 280.64 56.07 271.27 56.07 250.87 101.59 291.67 101.59 301.04 101.59"/><polygon class="cls-4" points="351.21 101.59 330.82 56.07 321.44 56.07 301.04 101.59 341.84 101.59 351.21 101.59"/><polygon class="cls-4" points="401.39 101.59 380.99 56.07 371.61 56.07 351.21 101.59 392.01 101.59 401.39 101.59"/><polygon class="cls-4" points="451.56 101.59 431.16 56.07 421.79 56.07 401.39 101.59 442.19 101.59 451.56 101.59"/><polygon class="cls-4" points="501.74 101.59 481.34 56.07 471.96 56.07 451.56 101.59 492.36 101.59 501.74 101.59"/><polygon class="cls-4" points="551.91 101.59 531.51 56.07 522.13 56.07 501.74 101.59 542.53 101.59 551.91 101.59"/><polygon class="cls-4" points="602.08 101.59 581.68 56.07 572.31 56.07 551.91 101.59 592.71 101.59 602.08 101.59"/><polygon class="cls-4" points="652.26 101.59 631.86 56.07 622.48 56.07 602.08 101.59 642.88 101.59 652.26 101.59"/><polygon class="cls-4" points="702.43 101.59 682.03 56.07 672.65 56.07 652.26 101.59 693.05 101.59 702.43 101.59"/><polygon class="cls-4" points="752.6 101.59 732.2 56.07 722.83 56.07 702.43 101.59 743.23 101.59 752.6 101.59"/><polygon class="cls-4" points="802.78 101.59 782.38 56.07 773 56.07 752.6 101.59 793.4 101.59 802.78 101.59"/><polygon class="cls-4" points="301.04 45.52 280.64 0 271.27 0 250.87 45.52 291.67 45.52 301.04 45.52"/><polygon class="cls-4" points="351.21 45.52 330.82 0 321.44 0 301.04 45.52 341.84 45.52 351.21 45.52"/><polygon class="cls-4" points="401.39 45.52 380.99 0 371.61 0 351.21 45.52 392.01 45.52 401.39 45.52"/><polygon class="cls-4" points="451.56 45.52 431.16 0 421.79 0 401.39 45.52 442.19 45.52 451.56 45.52"/><polygon class="cls-4" points="501.74 45.52 481.34 0 471.96 0 451.56 45.52 492.36 45.52 501.74 45.52"/><polygon class="cls-4" points="551.91 45.52 531.51 0 522.13 0 501.74 45.52 542.53 45.52 551.91 45.52"/><polygon class="cls-4" points="602.08 45.52 581.68 0 572.31 0 551.91 45.52 592.71 45.52 602.08 45.52"/><polygon class="cls-4" points="652.26 45.52 631.86 0 622.48 0 602.08 45.52 642.88 45.52 652.26 45.52"/><polygon class="cls-4" points="702.43 45.52 682.03 0 672.65 0 652.26 45.52 693.05 45.52 702.43 45.52"/><polygon class="cls-4" points="752.6 45.52 732.2 0 722.83 0 702.43 45.52 743.23 45.52 752.6 45.52"/><polygon class="cls-4" points="50.17 550.12 29.77 504.6 20.4 504.6 0 550.12 40.8 550.12 50.17 550.12"/><polygon class="cls-4" points="100.35 550.12 79.95 504.6 70.57 504.6 50.17 550.12 90.97 550.12 100.35 550.12"/><polygon class="cls-4" points="150.52 550.12 130.12 504.6 120.75 504.6 100.35 550.12 141.14 550.12 150.52 550.12"/><polygon class="cls-4" points="200.69 550.12 180.29 504.6 170.92 504.6 150.52 550.12 191.32 550.12 200.69 550.12"/><polygon class="cls-4" points="250.87 550.12 230.47 504.6 221.09 504.6 200.69 550.12 241.49 550.12 250.87 550.12"/><polygon class="cls-4" points="50.17 494.05 29.77 448.53 20.4 448.53 0 494.05 40.8 494.05 50.17 494.05"/><polygon class="cls-4" points="100.35 494.05 79.95 448.53 70.57 448.53 50.17 494.05 90.97 494.05 100.35 494.05"/><polygon class="cls-4" points="150.52 494.05 130.12 448.53 120.75 448.53 100.35 494.05 141.14 494.05 150.52 494.05"/><polygon class="cls-4" points="200.69 494.05 180.29 448.53 170.92 448.53 150.52 494.05 191.32 494.05 200.69 494.05"/><polygon class="cls-4" points="250.87 494.05 230.47 448.53 221.09 448.53 200.69 494.05 241.49 494.05 250.87 494.05"/><polygon class="cls-4" points="50.17 437.99 29.77 392.47 20.4 392.47 0 437.99 40.8 437.99 50.17 437.99"/><polygon class="cls-4" points="100.35 437.99 79.95 392.47 70.57 392.47 50.17 437.99 90.97 437.99 100.35 437.99"/><polygon class="cls-4" points="150.52 437.99 130.12 392.47 120.75 392.47 100.35 437.99 141.14 437.99 150.52 437.99"/><polygon class="cls-4" points="200.69 437.99 180.29 392.47 170.92 392.47 150.52 437.99 191.32 437.99 200.69 437.99"/><polygon class="cls-4" points="250.87 437.99 230.47 392.47 221.09 392.47 200.69 437.99 241.49 437.99 250.87 437.99"/><polygon class="cls-4" points="50.17 381.92 29.77 336.4 20.4 336.4 0 381.92 40.8 381.92 50.17 381.92"/><polygon class="cls-4" points="100.35 381.92 79.95 336.4 70.57 336.4 50.17 381.92 90.97 381.92 100.35 381.92"/><polygon class="cls-4" points="150.52 381.92 130.12 336.4 120.75 336.4 100.35 381.92 141.14 381.92 150.52 381.92"/><polygon class="cls-4" points="200.69 381.92 180.29 336.4 170.92 336.4 150.52 381.92 191.32 381.92 200.69 381.92"/><polygon class="cls-4" points="250.87 381.92 230.47 336.4 221.09 336.4 200.69 381.92 241.49 381.92 250.87 381.92"/><polygon class="cls-4" points="50.17 325.85 29.77 280.33 20.4 280.33 0 325.85 40.8 325.85 50.17 325.85"/><polygon class="cls-4" points="100.35 325.85 79.95 280.33 70.57 280.33 50.17 325.85 90.97 325.85 100.35 325.85"/><polygon class="cls-4" points="150.52 325.85 130.12 280.33 120.75 280.33 100.35 325.85 141.14 325.85 150.52 325.85"/><polygon class="cls-4" points="200.69 325.85 180.29 280.33 170.92 280.33 150.52 325.85 191.32 325.85 200.69 325.85"/><polygon class="cls-4" points="250.87 325.85 230.47 280.33 221.09 280.33 200.69 325.85 241.49 325.85 250.87 325.85"/><polygon class="cls-4" points="50.17 269.79 29.77 224.27 20.4 224.27 0 269.79 40.8 269.79 50.17 269.79"/><polygon class="cls-4" points="100.35 269.79 79.95 224.27 70.57 224.27 50.17 269.79 90.97 269.79 100.35 269.79"/><polygon class="cls-4" points="150.52 269.79 130.12 224.27 120.75 224.27 100.35 269.79 141.14 269.79 150.52 269.79"/><polygon class="cls-4" points="200.69 269.79 180.29 224.27 170.92 224.27 150.52 269.79 191.32 269.79 200.69 269.79"/><polygon class="cls-4" points="250.87 269.79 230.47 224.27 221.09 224.27 200.69 269.79 241.49 269.79 250.87 269.79"/><polygon class="cls-4" points="50.17 213.72 29.77 168.2 20.4 168.2 0 213.72 40.8 213.72 50.17 213.72"/><polygon class="cls-4" points="100.35 213.72 79.95 168.2 70.57 168.2 50.17 213.72 90.97 213.72 100.35 213.72"/><polygon class="cls-4" points="150.52 213.72 130.12 168.2 120.75 168.2 100.35 213.72 141.14 213.72 150.52 213.72"/><polygon class="cls-4" points="200.69 213.72 180.29 168.2 170.92 168.2 150.52 213.72 191.32 213.72 200.69 213.72"/><polygon class="cls-4" points="250.87 213.72 230.47 168.2 221.09 168.2 200.69 213.72 241.49 213.72 250.87 213.72"/><polygon class="cls-4" points="50.17 157.65 29.77 112.13 20.4 112.13 0 157.65 40.8 157.65 50.17 157.65"/><polygon class="cls-4" points="100.35 157.65 79.95 112.13 70.57 112.13 50.17 157.65 90.97 157.65 100.35 157.65"/><polygon class="cls-4" points="150.52 157.65 130.12 112.13 120.75 112.13 100.35 157.65 141.14 157.65 150.52 157.65"/><polygon class="cls-4" points="200.69 157.65 180.29 112.13 170.92 112.13 150.52 157.65 191.32 157.65 200.69 157.65"/><polygon class="cls-4" points="250.87 157.65 230.47 112.13 221.09 112.13 200.69 157.65 241.49 157.65 250.87 157.65"/><polygon class="cls-4" points="50.17 101.59 29.77 56.07 20.4 56.07 0 101.59 40.8 101.59 50.17 101.59"/><polygon class="cls-4" points="100.35 101.59 79.95 56.07 70.57 56.07 50.17 101.59 90.97 101.59 100.35 101.59"/><polygon class="cls-4" points="150.52 101.59 130.12 56.07 120.75 56.07 100.35 101.59 141.14 101.59 150.52 101.59"/><polygon class="cls-4" points="200.69 101.59 180.29 56.07 170.92 56.07 150.52 101.59 191.32 101.59 200.69 101.59"/><polygon class="cls-4" points="250.87 101.59 230.47 56.07 221.09 56.07 200.69 101.59 241.49 101.59 250.87 101.59"/><polygon class="cls-4" points="50.17 45.52 29.77 0 20.4 0 0 45.52 40.8 45.52 50.17 45.52"/><polygon class="cls-4" points="100.35 45.52 79.95 0 70.57 0 50.17 45.52 90.97 45.52 100.35 45.52"/><polygon class="cls-4" points="150.52 45.52 130.12 0 120.75 0 100.35 45.52 141.14 45.52 150.52 45.52"/><polygon class="cls-4" points="200.69 45.52 180.29 0 170.92 0 150.52 45.52 191.32 45.52 200.69 45.52"/><polygon class="cls-4" points="250.87 45.52 230.47 0 221.09 0 200.69 45.52 241.49 45.52 250.87 45.52"/></g></g></g></g></svg>