<svg xmlns="http://www.w3.org/2000/svg" viewBox="0 0 800 62">
  <g fill="none" fill-rule="nonzero">
    <path fill="#9D9E9E" d="M800 0h-12.863l-18.526 47.516L750.276 0h-12.959l25.438 61.34h11.903L800 0zM687.401 49.724h-34.27V35.997h33.022V25.246h-33.021v-14.11H687.4V0h-45.692v61.051H687.4V49.724zM559.635 0h-23.998v61.051h23.998c4.32 0 8.064-.576 11.423-1.728 3.36-1.152 6.24-2.688 8.64-4.703 2.4-2.016 4.415-4.32 5.951-7.008 1.536-2.688 2.688-5.471 3.456-8.447.768-2.976 1.056-6.048 1.056-9.12 0-3.071-.48-6.047-1.248-8.927s-2.016-5.663-3.552-8.159a26.3 26.3 0 0 0-5.951-6.72c-2.4-1.92-5.28-3.455-8.544-4.511C567.603.672 563.86.096 559.636.096V0zM547.06 10.847h12.575c2.688 0 4.992.384 7.008 1.056s3.84 1.632 5.28 2.88c1.535 1.248 2.687 2.688 3.743 4.223.96 1.632 1.728 3.36 2.208 5.184.48 1.824.768 3.744.768 5.664.096 2.015-.096 3.935-.576 5.951-.384 1.92-1.152 3.744-2.016 5.472-.96 1.728-2.208 3.167-3.648 4.511-1.536 1.248-3.36 2.304-5.471 3.072-2.112.768-4.608 1.152-7.296 1.152H547.06V10.847z"/>
    <path fill="#DA9926" d="M472.57 61.051h12.575L457.787 0h-12.575l-27.357 61.051h12.479c7.295-15.935 14.206-32.157 21.214-48.284 7.007 16.127 13.919 32.253 21.118 48.284h-.096zm-103.576 0V.192h-11.423v25.726h-29.95V.192h-11.518v60.86h11.519V36.476h29.95v24.574h11.422zM241.613 0h-28.798v61.051h11.52v-17.95h17.278c3.36 0 6.24-.48 8.831-1.44 2.592-.96 4.8-2.304 6.623-3.936 1.824-1.632 3.36-3.552 4.416-5.76 1.152-2.111 1.824-4.415 2.208-6.815.384-2.4.384-4.8 0-7.2-.384-2.4-1.056-4.607-2.208-6.815a23.035 23.035 0 0 0-4.416-5.76c-1.823-1.727-4.031-2.975-6.623-3.935C247.852.48 244.972 0 241.613 0zm-17.279 10.943h17.279c2.112 0 3.935.384 5.375 1.152a9.3 9.3 0 0 1 3.552 3.072c.864 1.248 1.536 2.688 1.824 4.223a12.395 12.395 0 0 1 0 4.608c-.288 1.536-.864 2.976-1.824 4.224-.864 1.248-2.112 2.304-3.648 3.071-1.536.768-3.263 1.152-5.375 1.152h-17.279V10.847l.096.096zM117.591 0v61.051h42.908V50.396h-31.39V0h-11.518zM54.716 61.051H67.29L39.933 0H27.358L0 61.051h12.479c7.295-15.935 14.207-32.157 21.214-48.284 7.008 16.127 13.92 32.253 21.119 48.284h-.096z"/>
  </g>
</svg>
