<svg width="624" height="578" viewBox="306 132 624 578" xmlns="http://www.w3.org/2000/svg"><path d="M533.23 634.76l.24.78-.65.59-.73 1.73-.94.66v1.9l.72 1.25-1.74 14.33-2.91-1-1.08-1.33H525l-1.07 1.08-.12 2.21-.84.82v1.14h-3.63l-1.14-.89v-.91l-1.13-1.17v-.61l-.89-.82.24-4.49.54-.53-.36-2.14 1.25-.83-.24-1.5h-1l-.11-2.67.47-.42v-4.35l-.71-.59-.41-1.14V635l-2.09-2.2v-1.31l.35-.36-.3-2.14h1.25l1.14 1.13h3.16l1.13-1.08 1 .12.36-.37V628l2-2.26H525v-1.04l1.6-.54.73.7h.41l.89.85h.73l1.42 1.59v1.13l-.42 1v.26l.36-.26.54.49.54 1.62.71.65.24 2.09.48.48zm61.62 31.64v-.48l-.78.25h-.54l-.41.41-1 .18-.53-.12-.65.65v.71l-4.36-.48-2 2.09-7.28.24-1.25 1h-1.66l-1-1h-.84l-2.14-1.49h-.72l-.53.53h-1.5v.6l-.89.89h-1.31l-1.25-1.13h-1.5l-1.06 1v3.93l-.79.72 1.69 1.54h3.92l.71.66 2.09.89h1.26l1.3 2.15h1.56l3.92 2.27h4.06l1.49.53v1.2l4.41 3.1 4.17.34.48-.69-.42-1.92 2.44-2.75-.83-.77V681l-.66-.42.55-.58-1-1h-.71v-.6l-.41-.89v-1.11l.89-1.25v-.77l.53-1.13.12-1.25 2.14-3.87-.23-.71.65-.6-.13-.42zm-67.93-63l-.66-.85-.89.12-1.55 1.43h-1.61l-.54.53h-.59l-.78.32-.3 2.44-.89 1.07 1 1-.9.9.48 1.25 1.73 1.61-1.73.71L521 615v.89l-1 .89.37.89h1.78l.12.6-.54.54v.65l1.67 1.37h1l.23.48.48.42.89.29 2-1.9.47-6.2 1.49-1.25-.11-7.44-.53-.78-.19-5.37-1-.95-.36.42.06 3.34-.53 1.49-.38.02zM317.17 470.89l.71 1.14 8.52-1.85.78-1 2.14-.42-.11-.77-.9-.72.54-1.43 1-.3.77.6.41 1.19 1 .54.59-.13 3-3 1.79-.24.89-1.13-.12-.54 2.45-.41 1.37.58 1.85-.24.84-.59.47.46.65-1.77 1.5.76.48 1 .71.54 2-.58.71-1-.12-2.31 1.25-1.14 2-6.38 1.91-2-.41-11.73-2.5-6.37 1.42-1.49.89-.13.55.35 2-.58.6-2.15 2.8-.53 2.15-2.45-.77-5-.9-.6-2.38.06-.19-.89.66-.48.78-.12.53-.72-.72-.88-.05-1-2-1.79-.59-3-2.46-1.74-5.95 1.31-.12-.71-3.59-3.18-.89 1.26-1.5.48-.77-.12-3 1-1.84-.35-.95.19-2.14 1.73L334 413l.18 1.14-.47.64-2.27.31-1 .6.12 1.25.6.4 3.47.61 1.12.65-1.19 1.56-2.33.53-1.31 1.19.24 2.09-.35 1-.6-1.19-.9-.72-2.08-.24-1.19.42-.9 1.13-.77-.59-.18-1.38-1.79-.35-1-.72-5.06.24-.24 1 .53 2.67-1.9 1.5 5.12 3.39-3.85 1.38.11 2.15-1.43.1-.7.79-.91 2.14 5.08 1.79-.42 1.49.71.53 3 .42 2.44-.42 1.07.48.06.77-1.07 1.19-1.43-.41-1.19.66-1.9 2.31.11.72-3 3.45-.3 1.19 1.55.42.59.83-2.27.31-2 2.55.06 1.39-1.16 1.78-2-1.56-3 .42-1.13 1 1.43 1.15 4.82.18-.36 1.43-4.11.65-1.65 2.28 1.61.95.53 1.07.42-.54 3.93-.53.54.36-1.56 1.37-1.6.24-1.37 1.9 1.32.36 3.21-.48.95-1.19.9-.18.12.54-.9 1.19-1.12.42-1.32 1.72.89.72 2.8-1 .82.28zm46.71-81.21l-.12-2.93 1-.12 2.5-3 .3 3.81-1.31.72-2 4.1.12 1.2-.65 1 .12 2.8.29.71v2l-1.25 2.27-.13 1.18-1.36 2.69-.18 1.49 2-.12.77-1 .24-1.3-.12-1 .66-1.26-.18-1.25 1.54-2.08-.11-1-.84-1.6.84-1.08 1 .59.23 1 .72.53.11.66 1 1.08 2.55-5.43-.1 1.13.23.72 1.61 1.13-1.25.18-1.11 1.41-.25 1.31.13.89 1.78 2.69.18 1.07-.12.83-.36.48-.83.54-4.05 7.62.18 2.87 1.66-.37.24-.3 1.67.07 3.11 2.56h1l-.18-1.07-.29-.25-.18-1.54 3.1 1.43.59.84.77-.12 2-1.38.73-.11 1.12-.6.36-1.25 1.08-.36 1.18.3.48.83-1.48 2.11.06.71-.48 1.08-1.84 1.72.11 1.14 1.44 1.61.64 3.39 1.26 1 .84 1.54.77-.1.6-1 1 .18 2 1.42L390 432l-.06.75-.77.44-1 1.25-.42 1.35 1 1.57-.23.36-.24 1.18-1.2 2 1.14 2 1.19.89-.66.12-2.15-.71.42 1.72-.59.18-1.13-.9-9 1.44-2.3 2.25-.31 1-4.22 3.87 1 .3 2.15-.7.77-1 1.43-.24.88.6.55 8.71-1.16 1.57-2.68 1.12-.72 1-1.55.18-3.4 2.26-2.91.42-.78 1 .18 1 .77.59.12.83-.59.84.05.54.66.47-.53.78 2.56.29 2.37-.59.49-.66 1.42-.17.73-.9.59.42 1.37 1.84 1.31-.17.12.83-1.66.06-.6.83.95.72 1.78-.18 1-1.25 1.31-.18 1.08.84.05.83.48.36.11.77 1.8 1.37 1.91.67 2.44-.37.35-.48.07-1 .71-1 2-.3 2.51-1.25.71-.89 2-1.26-7.21 8.4-.18.78-.3.36-3.28.41-1.49-1.41-.88.16-1.44-.24-4.77.66-1.36 3.09-1.26.66-1-.72-1.19 2 .18 1.44-3.62 4.05-1.2.1-3.67 4.68-2.69 1.73-1.31.18-1.36.65-.37 1.61 2.21-.11.66-.9 1.07-.18 1.31.78.18 1.43-.43.12.84.65.89-.12.66-1.31-.11-.77 2-1.85 1.25-.18-.06-.65.6-.89 6.31-1.08.53-.89.85.78.35 1.25.54-.06.6 1 1.54 1.25 1.38.18-.07-.84 1.32-.89.83-1.13.18-1-.12-.71.42-2.14 4.22-2.15 4.54.36 2.08 1.49 7-.54-.43-1.38 6.2-1.06-.12-.77.53-.67 4.48 1.09.95.71L426 489l3-2 1.2.06.59-.78-.12-.89 2.21-1.24 1.61-.37 1.43-.95-.3-2 .37-2-.79-.53-2.32-.06-.36.47-5.67-.66-.83-.53-.35-.59.23-.3 4.06-1 .54-.71.12-1.25-.79-.6-1.61-.35.78-.06.77-1.07 1.2-.13.89.25.42-.54 1.54-.24.49-1.13-1-.24-1.24-.95 3-.83 2-1.85 1.9-6.73-.48-1.49.3-1.8-2.68-2.86-8-2.32-2.85.83-.71 1.74-.84.82-1.55-.06-.17-.42v-1l-.78-1.36-.06-.73 2.38-1.61-1.31-5.48-1.19-1.49-1.61-.97-1.49-10.68-2.26-2-1-1.9-.13-.89.18-.84-2.5-1.91-4.58-1.37-.72-.53-1.79-7.51-1.19-.9-.77-3.27.35-1.79-.35-1.91-9.24-8.64-4.53 1-3.28-.54.41-.53 2-.37.17-1.25 2.27-1.42 1.43-.19.71-.83.6-1.9-4.83-.54 3.88-2.08 1-.13 3.63-4.94.24-1.78 1.37-1.85 1.08-4.71 1.61-2.5.24-1 .77-.95-3.28-3.75-1.07.24-1.25.71-5.07-.29-1.07.42-4.29-.6-2.32 1-.73.78-1.77.41-.61-.48.42-1.6-.06-.42 1.26-1.73-3.46-1.6.77.12 3.34-2.92 1.48-.43 4.72-4.88.71-1.67-.42-1 .72-1.49-.72-1-11.49 2.26-1.2-1.07-1.78.29-.66-.47-1.07-.3-.9-.65-.42.65-.77 3.76-.6 1.07-1.13.36-.83 2.61-1.15 1.61 2.26 2-1.55.66-2.44.18-.54-.37-1.49.54.36 2.5-.6.78.89 1.25-.23.84-.78.65-.35 1.43.83 1.07.18.73-.66 1.3.78 2.56-1.49 1.73.11 2.86-.76.9-1.5-.06-.59.71 1 .72.24 1.07h-1.07l-.9-.65-1.12 1.31.12 1 .59.85.13 1-.36 1-.95.71-.31.43 1 .35 5.08-.66zm351.81 314.14l-.84-1 .19-1.12-10.73-1.25-1.79 1.36-6.73.36-1.85-2.27-3.27.55-1.32-1.61-.23 1.67h-1.5l-.41 3.81 14.36 1.68 2.5 3.1 2.32-1.73 5.19-.18 2.33-1.78h5.77l2.15-1.73.12-1-4.47-.48-1.79 1.62zm156.36-197.23l-6.8-4.29-2 .84L857 500l-4.84.95-7.68-7.32-1.14.95-9.52 1.43-2.34-.83-1.83-1.54-.84-.18-2.5.72-2.8-1.33-.71-1.11-.31-3.71-1.63-4.03-2.57-1.9-7.8-.83-.42-1.44.06-1.07-.83-.83-.72-2.56 1.67-1.73.36-1.31-2.86-3.33-.72-1.85-1.9-1.78-8.64-.54-2.38 1.73h-2l-.42-.47-2.27-.71-2.26 3.21-3.4.89-1.66-.65h-1.62l.47-1.31V466l-1.3-2.74-.78-5.42-2.09-3.29 1-2.14 9.24.3 2-.78 2.08-2.08v-1.15l-2.92-4.94-1.92-1-4.11-.17-.41-1.08.83-1.9-.13-1.67H781l-2.91-1.37-3.4-4.94-.36-1.91-2.87-2.56-.53-2.93 2-3-1.9-2-.06-4.18-2.21-2.8-3-2-6.85.13-1.19 1.07-3.29.47-.47-.47-.47-3.22-.54-.83-5.72.78-1.43-1.43h-3l-2.09-1.44.12-4.11-.41-1.19-.79-.77-.47-1.32-2-2.08-.23-1.49-.47-.42-1.48.12v-.95l1.18-1.25.23-5.66-3.75-3.82.06-3 2.75-2.68.23-2.15-2.44-2.44.59-8-.89-1.84v-1.49l.89-1.31h.72l1.25-1 .53-1.25 1-.95-.48-1.55 2.08-1.78h2l-.35-1.74-1.62-1.67-.53.54-2.44 1.07-7.39-.17-3.16-1.44-3.39-.17-.83-.42-6.2-.6-1.37.54H712l-1.07-.72-1.37 1.84h-6.74l-1 1h-3.81l-1.67.59-.71 1.38-7.16 2.68-.64.66v2l1.12 1.13-.77.71.29 6.44 1.67 2.74 1.55.54h1.85l.83.82 3.39-1.77 1.74 2v1.2l-1.8 2.89v1.84l.95.24h-1.19l-.18 3.93 1.08 1.86-.12 2.85-2 2.51-5.25 3-3.92-.42-11.21-11.87-.47.48h-1.37l-1.5.71-1.54.18-1.07 1.08-2.5.35-3.65 5.19v2.63l-.89 1.84-3.39 3.22-.84 2.62 1.82 14.76.66.67.58 2.38-.35 1.12.54.6.12 1.66-1.73.24-1.49 1.33.06 2.56-.35 1-2.09 1-7.27.17-.3 1 1.19 3.58-1.78.66h-1.55l-3.69 3.7-8.46-.43-1.73-.71-1.61-1.53-.89-2v-1.2l-1-1.19-8.1-.11-17 7.15-.83.78H602l-.71.78-8.94 1.9-.78.72-3.88 1.54-.77.78h-1.49l-2.44 2.5h-1l-1-1-.9-1.91-1.66-1.67h-4.12l-1.43-1.37h-2.74l-3.34-3.34-4.7.78-2.75 3.28-1.12-.42-1.43.36-.82.77-1.56-1-1.67 1.55.18.12-.42.72-2 1.43h-1.13l-1.43.66h-1.61l-.72.64v1h-1.25v1.31h-.9l-.77-.72-2.21.06-1.08 1-1.18-1.32 2.26-2 .36-1v-1l-.59-1.37-1.26 1.04-1.79.06-.88-.78-2.15-.89h-1.07l-.42.29-.6-1h-2.38l-.66-3.81-.36-.31-.35-.71-.06-.67-.13-.12.07-.76.17-.18.77-.07v.25l-.35.22.23.19v.53l.83.13.12.29.17.18.24-.31-.12-.36-.18-.18v-.28l.11-.06.18.18.24-.32v-.36l.25.26.06.23h.77l.18-.19h.12l.17.14h-.29l-.24.24.3.22h.05l.18.19.36-.08.12-.12h.17l.72-.22.05-.12-.35-1.31-2.56-2-1.43-.11-.3.35.17.18h.3l-.42.23 1.54.72.13.3.3.12.53.47-.35.24-.48-.52-.35-.13v.41l-.25-.05v-.53l-.23-.13-.06-.17-.42.06-.24-.23h-.23l-.47-.43.11-.12-.42-.23-.16.26h-.47l-.37.13h-.47l.47-.42.37-.06.11-.07.13-.17-.13-.36V427l-.22-.3H527v-.06l.37-.05.23-.24-.42-.06.89-.78.6.17.53-.53.18-.42.11-.06-.11-.3v-.23l-.37-.3h-.35l-.18-.18.3-.36-.12-.12-.29-2.26h.29l.24-.23v-.42l-.31-.3-.12.13h-1.18v-.3l.53-.18v-.18l.3-.11.66.29.23-.24.66.72.29.06.59.66h-.29l-.3-.24-.35-.06v.12l.53.48h.35l.06.06-.16.17.16.06.19.18v.17l-.36.24.53.47.59.18v.65l.18.3-.06.18.18.53-.07.18.29.29.61.13v.83l.17.36v.53l.3-.05V426l-.18-.18-.17-.47.17-.18.36.24.36.06.36-.12.12.12v.3l.3.3.06.53-.18.17-.35.06-.3.25.12.05 1 .12.06.25h.3l-.06-.19.06-.29.18-.18.47.42.18.06h.29l.43.36h.53l.23.18h.42l.42.18h.6l.53-.48 1.43-.06.31-.42v-.36l.36-1v-2l-.19-.48.12-.12h.37l-.48-1.31-1-1.13-.17-.65.12-.19.35-.05.07-.17-.66-.6v-.47l-.66-1.13v.58l-.18.12.24.17v.6l-.3-.07-.14.18.41.35-.11.13.06.3-.53.05-.25.19-.24.07-.18.42h-.42l-.3-.3v-.37l.47-.11.3-.3H538l.06-.17-.06-.24.47-.24h-.36l-.3-.23h-.3l-.17-.25-.11-.42-.24-.17h-.42l-.66-.43-.06.13v.41h-.23v-.23l-.35-.06-3.27 1.59-.12.29-.72-.06-.36-.53-.17.18-.66-.18.06-.42.18-.29.82-.48v-.17l-.11-.13-.53-.12-.72.07-.24-.48-1-.71h-.58l-.12-.31h1l1.84.66 2-.66-.06-.29.54-.36.05-.12-.41-.18.3-.65v-.24l-.06-.18-.84-.05-.54-.25h-.29v-.29l1.49.12.12-.17h-.59l-.06-.18.23-.23h1.19l.3.17.06.24.18.23.41.12v-.2l.18-.17-.36-.37.6-.52.24-.6v-.48l-.18-.54.23-.59v-.18l-.47.06.54-.47-.54-1.61.24-.89.89-1.19.24-.73.35-.06.78.25v.29l-.3.42.07.48-.36.06-.06-.18-.48.18-.06.65.36.48h.18l.12-.24.17-.18 1 .06.12-.12.18-.47.29-.3.79-.06.16.12-.16.18v.24l-.19.16.54.54h.3l.13-.06.13-.29-.07-.48.13-.66 1.12-1.78.36-.24-.06-1.12.77-.9-1.12-.83-.18-.41-.35-.19-.18-.16-1.9.23-.31.29-.95.06-1.25-.58H536l-.23-.43v-.32l-.19-.11-.29.3-.43.17-.18.17.06.19-.17.83-.18-.54.13-.72 1.19-1.25-.07-.35-.89-.66-.23.06-.36-.13.89-.06.18.13.35-.4-.13-.53-.35-.25-.13-.42-.23-.29.23-3.64.48-.18 1.19-3.51.71-.53-.17-3.95.23-.42-1.31-1.18-.1-1.35.24-1.07.65-.66.37-.13.71-.77-.13-.24-1.12.37-1.85 1.84-.65.3-.24.3-2.8.29-4.18 6.8-1.48 1.08-2.21.59-1.84-.42-1.31.48-.24.35-2.08.24-.53-.17-.66.53-.23.35-.07.3-3 4.59-.07 1.26.31.35h.11l-.11-1.13.64.54v.89l1.44.95.11.24.37.3.23.59.42-.12.24-.17.06-.54-.17-.18-.13-.35v-.35h-.12l-.42.22-.12-.06.36-.36-.36-.28-.06-.84-.12-.23.12-.18v-.42l.17-.18.18-.06.12-.3.23-.23.37-.18.17-.24v-.16l.18-.37-.25-.17.67-.9.95-.06.47-.66v-.29l.3.24.24-.24V392l.29.18.13.23h.29l.24-.23 1.08-.07.59-.47-.18-.29-.47-.42-.12-.6.23.42.54.35.3.43.29.11.06.31.66.47.36.12.24-.42 1.31-.53h.18l.41-.24.47-.06v.3l.73-.24.11-.18h1l.95-.41.18-.18h.24l.36.13.71.53h-.23l-.36.12-.24.18h-1.55l-.29.29-.13.54-.28.1-.18.16v.25l-.3.23.06.36-.37-.36v-.16l.25-.24v-.3l-1.13-.23-1.78.29-.48.65-.06.18-.53.42-.18.72.53.47v.37l-.29.17v.55l.11.36h.13l.35.3.07.23-.07.37-.58.65-.13.3v.29l.3-.36.41-.23h.6l.12.12.06 1.13-.3.6v.35l.43.18h.54v.3h-.31l-.42.18h-.17l-.17-.13-.13-.18v-.65l.18-.47-.24-.24-.12.06-.23.23-.79.06-.53.54-.09.48h-.29V400l-.29-.18.35-.52-.06-.19.42-.35.17-.36v-.4l.24-.23-.3-1.14-.18-.17-.06-.23-.29-.3-.6.17-.65-.1-1 1.18-.17.42.53.13.18.17-1.19.37-.54 1-.47.17h-.18l.11.78.19.29.23.18.12 1-.29.22-1.08-.24.42.18h-.3l-.3-.24v-.42l-.29-.29-.06-.19.06-.29h-.24l-.17.24h-.31l-1-.43h-.95l-.13.24h-.16l-.07-.42-.59-.47.12-.12-.42-.12-.06-.3.12-.13-.11-.91-.53.83-.07.78-.3.54-.05 3.16.23.11V403l.18-.22.71.53-.47.06-.17.18 1.43 1.25.06.11-.47.48-.06-.17v-.31l-.6.06-.24-.23-.47-.24-.06 6.15.3.23.13-.18-.31-1.9 1.67.95.36.47.07.78.17.36.42.36.06.42-.12.36-1.08 1.13-.53.29H513l.06-.53-.24-.17-.24-1.79.12 5.07-.12.41-.48.54.07 1.08-.42.41.35.3h.48l1.67 1.44.18-.24-.31-.6-1-.77.43-.48.78-.06-.19.18.25.3v.41l2 1.38h.18l.42.36h.42l.36.65.23 2.86.36.83-.42 3.64.42.36v2.73l1.37 1.27.67 1.43.52.53v1.32l-1 1h-1.26l-.82 1.78h1.48v2l.84.66h1.12l-.47 1.48h-.78v.78l.53.89 1.13.83h-2.5l-.48-.42-1.31-.17v.59l-1.07.78.35 5.54-1.12-2.14-.9-.83h-.83v2.28l.6.58-1 .12-1.26-1.13.12-1.48-.41-1.38-.47-.42-7.15.6-1.13 1v1l-.83.77.41 1.49.53.53h.84l.78.72-1.25.53-.72-.53-.42.06-.12-.17-.36-.06-.16-.4-.13-.12-.06-.16-1.24-.44v-.06l-.31-.17v-.18l-.29-.89.18-.24-.47-.23-.06-.13h-.37l-.29-.12-.89.12-.42.24-2.08.24-.66.31-.13.22-.29-.22-.13-.19h-.59v.23h.06l-.06.07h-.12l-.06.06-.06.12.12.06h.23l.13.12-.18.18.06-.11v-.08h-.42l-.06-.12v-.3l.18-.12h-1.85l-3.51 1.25-2 1.49-.31 1.13-.23.36.13.23v.14h-.18v.11l.18.48.11.11-.05.18.11.67-.17.53.12.24h-.36l-.29.25.53.48h.65l.54.28h.42l.12-.12.6-.16.12.1v.14h.36l.18.12h-.31l-.23.12-.6.84-.13 1.37.07.23.47.6 1.61.11.95-.29h.24l.24-.12.12-.17h.36l.12.17-1.79.47-.12.41.17.31.06.89-.53 1-.59.29-.3.36-.3.18-.53.12-.72.47-.06.18v.17l-.42.47-.29.13h-.31l-.35.12h-.23l-.06-.05-.17-.06-.25-.3h-.29l-.48-.41h-.95l-.66-.42h-.47v-.36l-.59-.12-.3-.3.83-.06.66-.83-.35-.13-.07-.17v-.24l.07-.19.16-.1v-.24l-.16-.18v-.59l-.31-.3-.06-.42.17-.29 1.26.23.36-.23h.23l.18-.13v-.25l.18-.16h.23l.24-.37v-.22l-.53-.48-.79.13-.3.23-.12-.13-.12-1.66-.42-.79.12-.28-.65-.32-.83.67v.13l.13.36-.43-.14-.3-.3h-.17l-.36-.4.3-.54-.6-.12-.41.18-1.68 6.67.66.29-.6-.06-.23.18-1.91 3.63-2.38 2.38v.24l-.36.3.54.65h.23l.72.54h-.66l-.41-.42h-.29l-.6-.6h-.36l-.17.12.06 1.38.29.29h.18l.71.54h.24l.83.77h.43l.29.3 1.44.6h.89l.77-.66.17.18h.19l.12.06h.23l.24-.18.06.06.24-.17h.29v.17l.36.06v.36l-.17.12H479l-.12-.12h-.36l-.17.18h-.42l-.18-.06-.47.06-.66.42h-.35l-.42-.42-1.67-.24-.83-.72v-.12l-.18-.06-.66-.59h-.35l-.24-.3h-.17l-.25-.24-.17.13h-.42l-.12.12h-.42l-.3.23v.42h.24l.23-.23.25.06.47-.06.29.35v.36l.18.18.12.23.17.18h.53l.31.3h.14l.53.42h1l.36-.3.11.17-.28.31-.42.17-.12.13-1.26-.06-.16-.18h-.42v.12l.29.3h.24l.11.12h.19v.36l-.19-.12-.11-.18h-.53l-.19-.17H472l-.23.12-.12.12-.36-.06-.18.18.48.47.12.3.29.23h.66l.24.24h.36l.17.06h.3l.29.24v.41l-.23.18-.06.12-1.37-.06L471 478h-.42l-.29-.3h-1.59l-.37.24-.65-.6.07-.23.53.53h.17l.17-.12 1.2.06.36-.3v-.17l-.31-.3-1.78-.06-.24.18h-.42l-.16-.18h-.37l-.11.12-.37.12-.42.36-.29.06-.07.24.24.24v.17l.9.95.82.06.36-.29v.29l.47.55h.31l.53.22.71-.12.12-.1.07-.38.23-.23.24.06.23-.06.24.17.13.18h.23l.42.36 1.19.06.3.31-.17.11-.13.29v-.23h-.26l-.13.12h-.41l-.13.12-.18-.18-.11-.06h-.24l-.48-.53-.6.06v.47l-.53.13-.23.17h-.66l-.18-.17h-.42l-.22.17-.79-.65h-.65l-.42-.42h-.24l-.53.23-.36-.06-.83.47h-1.67l-.6.54h-.83l-3 1.93-2.08.16-.72.77-6.14.61-1.55.82-5.78.3-3.11 2.66-.31 3.93-.89 1v2.5l1.37 1.37-3.87 3.88h-3.93l-2.86 1.61h-1.32l-4.47 3.15v1.31l.78.78h1.5v1.31h-1.86l-1.12 1.2-13 .1-1.49-1.43-1.42-3.28h-6.8l.47 3.4 1.6 1.6V514l1.74 1.65v2.5l1.07 1.15-1.07 1.13-8 .12-1.19-1.19-1.66.65-1.27 1.22-4.88-4.34h-1.77l-1.74 1.73-1.19-1.19-1.85 1.84-9.17.3-3.28 2.74v2h3.28l-.24 4.24h-1.3v1.31h1.83l2.09 1.31v1.61h6.79l2.38 2.32h2.63l1.31 2.38H393l1.08 2.92 2.86-.3 1.85.54-2.08 2.15.23 2.63 4.46 6.31 5.25 1.55 1.43 1.48-1.67 3 1.79 5.77 3.81 3.82.13 3.81-1.32-1.31-1-2.92-1.19-1.19h-1.73l-1.55 20.2-1.08 1 .3 3.17-4.53 6h-7.86l-1.25-1.24-1.86-.73h-1.36l-1.79 1.49-3.4-.36-1.6-1.61-40.53-.77-4.34-3-5.36.23-2 1.08v3.17l-1.2.76-8.28 1.49-3 3.39v.79l1.55 1.83 2.08 1.2.54 1.08.23 12-.78.78.42 1.19v1.31l.9 2.52v2.67l.71.71.6 4-1 1 .06 2.92-.77 2.26v2.92l-1.91 1.91-.23 4-1.48 1.55-.48 1.25-1.6 1.61.06 1.13-.78.78-.66 5.55.66.66v.95l1.66.24 3-3v1.09l-2.24 3.09v1.6l4.34.24-.4.4.83.79-.83 1.85-.24 8.15.66 1.85v1.43l-2 2 .47 2.2.42-.51 5-.54 3.17 1.08h4.17l.53-.54 2.8-1.43.36-1.07h6.44l3.16 3.15 2.37.67.78.77V685l.54 1.18.77.78 1 3.71 2.92 2.26 1.32.12.77.78h1.44l1.6-.65 1.85-2v-1.45l2.44-1.49 4.59-.12 1.74-2.38h.65l.65-.65h5.79l1.3-.55 5.9-.34.78.76h3l2 .65 2-2h.78l3.1 1 3.1-3.09.89-4 4.89-3.39h4l1.49-.54v-.84l2-2.08 1.54-5.19 4.41-4.84h1l3.16-2.37-4.35-5.5-.35-1.07.77-6.85 8.74-10.56 3.39-1.93-.78-.7v-2.14l1.55-.83 1.08-1.14 5.42-2h1.54l.66-.72h1.31l2.74-2.73h1.55l1.61-1.67.42-1.08.06-2.8.95-1v-1.31l.66-.66v-4.88l-.48-.24.07-3.15-.24-.78.78-3.3 2.32-2.31 1.44-.73 2-.12 6.08-3.81 1.38.12v.72l.3.42.06.37 2.38-.06.42.22 1.37.06.47.47.72.26.83.76h.6l.35-.28 3-.48.37-.84.3-.3h.32l1.32.83v.31l-.4.35-1.54.19v.62l3.45.48.24.23v.3l.36.67-.12.24.65.28h.3l1.91.73h.83l.18.58 2.13.85.42-.18 2.34.24.22.16.6-.47 5.24-.83.54-1.8.84-1 2.67-1.59.31-.54.36-.31.52-.06.42-.42 1.32-.59v-.36l.83-.76 1.49-.08.82-.83 2 .12.53-.53 5.48-1.79 1-2.26 3.17-2.33v-1.54l3.68-3.69h4.47l3.17 2.32h3.63l7.63 4 1.61 7.1 2.32 2.91v2.93l2.92 2.85.47 1.32 21.81 18.17 2.69-.06 2 2h5.13l8.27 8.17h3.28l5.9 7.8 3.17 1.6h1.54l1.61 1.32v3.93l3.39 1.07v5l1.84 1.85-1.54 1.56-.83 2.08h-1.84v2.69l-1 2.32-2.27 2.27v1.73l6 1 5.48-6.79v-3.16l2.08-2.08 5-1.85-.77-5.25-5.91-6V641l4.78-4.82h1.67l1.84 1.9 4.95-.53 2.19 2.26v2.27h4.65l.78-2.92-.3-1.85-17.69-11h-.43l-10.48-4.76 1.31-2.69 2-2-1.63-2.17-13.17-.53-2.33-2.38-5.5-2.08-2.74-2.8-.9-7.76-6.13-8.14-3.09-1.61h-1.38L561 582v-4.47l1.85-1.84v-2.62l-1.44-1.44-.94-2.5-1.56-1.07 2.5-2.52 1.74.42 1.25-.17 1.91-1h.83l-.47-.89.59-.53 3.16-.42 1 .42.71-.18.36 1h.47l.72 1.54 1.55 1.13-.3.83.06.42.78 1.13-.06 2 4.11 5.79 1.13-.89.17-.66v-.62l.47-.83.35-.32 1.31-3V569l1-.42h.42l1.91 1 .53.83 2.5 1.89.3.85.42.47.53 4.71 3.75 4.88.13 1.91 2.44 2.14.41.83 6 3.58.11 1.73.54.65 1.37.72.42-.6 1.44-.65 8.15 1.61 17.11 11.39.47 1.31 9.36 9.7v3.1l-.6 1.78v4.47l-1.13 3v5.86l7.63 6.73.48 1.48.83.84.89 2.85 3.46 3 1.43-.18 3.21 1 .54.81-.29.9-4.47-1.38 1 2.44 1.25 1.21 1.13 2.78.06.89.48.79.82.66.66.16.78-.4.12-.42 1.13 1.43 1.31.24.89-.54 1.61.3.83-.42h.72l.24-.19 2-.4 7.39 2 5.18 3.52-.12.53-1.25.36-1.19-.36-.71.42.12.53-.24.54-.47.23-3.69-2.32-.3-.47-3.88-1.38-1-1-2.14-.95-1.9.59-.12.58-.78.19-.42.3-1.61-.12-1-.6-.66 1.38-.53.29-.06.89-.54.66-1.61.36-.29 1 2.44 2 .12.72 1.61 1.19 2 3.34-.42 1.43-1.19 1.07-.23.89.06.84.53 1 .6.53.06.6-.24.77.24.6-.18.85 2.86.28.36-.66-.24-1.31.13-.78.53-.47.84-.36.78.25.35.41v.78l2.69 4.12-.67 1.89.54.91 1 .47.31-1.25-.07-.72 1.55-2.68.42-.25 1.91.37.06 1.37.71.94.48.08.47.7.12.59.83.48.54.9.42.24.59-.53-1.66-3.19.71-1.91-3.71-9.83.36-1.13.78.24 1.37 1 1.13.3 1 1.08-.29 1 .29.66 1.49-.66.47-.42.36-.12 1.55.12.47-.24.24-.65-1.25-1.25-.17-.6-.53.3-1.09-.17-.47-.48-1.17-3.14-.95-.6.12-.42 3.69-1.07 3.4.59 1.61 1.85.53.23 1.67 2.21.6.23.71-.77.13-.6-.9-4.82.54-.66.06-.53-.54-1-1.74-.26-5.36-4.1-.24-.77-.48-.66-1.06-.3-.31.16-1-.28-.54-.89-4.59-1.86-.42-.6.24-.47 3.93.85.72-.19.48-1.24-.72-1.2-.18-1-1.31-1.44.18-.71L680 649l.17-.3.72.18 1.61 1.37.24.47.59.6 1.25.23-.18-.78-8.4-12.68 1.49-1.49.17-1.9.66-.72h.68l1.55-1.14 1.74 3.95 1.07 1.07h1l.95 1.43v.78l1.91 2.33.59-.66v-1.49l-.65-.71v-.78l.53-.47 3.22 3.28h1.31l.71-.78-2.2-2.2-.47-1.38.89-.89 3 3 1.13-.72v-1.19l-4.45-4.41.17-2.32 6.21.3 2-2h4.47l.43-.42h2.31l.42-.42 2.38 1.78 1.67-.55h3l1.13.9h2.26v1l2-2.19 1.08-4.46 1.67-.85 1.07-1.67-2.38-5.06 1.49-1.49 6.55-2.26h1.32l.83.83 6.5.72.82-.84-1.23-2.36-2-2-.66-1.79 6.92-13.18 2.14.48 1-.6 1.91-13.46 2.2-2.28.3-1.3-.3-1.31 1.08-1.07v-1.8l1.31.13-.29 1.44 5.42-.42 1.43-1.69-.42-2.24 1.2-1.21.23-.76-.89-2.64v-2.8h.89l3.34-2.08 1.73-.36 3.22-4.11h1l2.26-4.4 1.68-1.69 6.25-1.06 1.74.66h1.72l1.68-3.51.29-2.51-2.2-2.45.47-1.78v1.31l2.73 2.26.31 5.38.65 1.07 3-.12 1.31-.66h1.49l-2 2.5h-4.89l-.65.66-.18 1.61-1 1 20.49 3 .72 1.48-.84.89H801l-10 6.55h1.44l8.28 4.11.88 1.15-.47 4.82-1.49 1.55 2.21.89 1 1.31h3.94l5.78-4.17 1-1.74 4.77-.42 3.81-2.25.36-.91 2.75.43 1.84.9h3.45l2.74-1.57H835l1.44-2.26v-1.52l-4-1.37-1.83.85-4.78.1-2.07.91-2-.49-5.42-8.45v-1.79l2-1 1.91-2.38 4-.71 3.22-3.4 6.91-.9.89-1 3.76.44 16-6 .36-4.53 1.49-1.85 2.5-1.07 2.79-2.62 10.26-.36.29-1.67 1.28-1.31-.84-6.14-1.06-.89-.06-1.37 1.48-3-.84-2.26 2-1.37.83-1.92.06-2.33-.84-2.12-2.68-.51zM484.73 317.15H486l-1.84.6h-3l-1.79 2.57 22.64-.61 2.68.9 1.25 1.25-1.55 1.61h-2l-1.32 1.07-1.49-1.49-14.53-.59-4.61 4.54.95 1h1.73v.84l2.15.89L484 331l.78.79 1.18.59-1.71 1.79h-1.62l-3 1v1.66l1.37 1.37.89-.84h3.1l1.8 1.86 2.38-.72 3.76-3.93h1.78l2 1.18-.84.78h-1l-.7-.71-1.86 1.91v1.54l-3 .85-3 3 1.31 1.24 1.36.6h2.5l-1.12 1.14H489l-3.41 3.45H484l-3.33 1.55.6.6v1.37h3.33l2.57-1-.42-1.6 4.53-.19 1.78-1.78.72.72-1.91 1.84-.59 1.85 1 1h-1.3l-1.08 1.13-.59 2.56 2 .3.84-.83h1.24l-2.62 2.68h-2.38l-2-2-.71 2.07-1.25 1.26V363l3.34 3.4 1.18 2.32h3.18v1.43l3 1.43 1.12-1.13h2l.41.65-2.21 2.39h4.35l1 1h7.68l1-1 1.79-.36.77-.78h2.63l2.26-2.27h1l2.07-2.28h1.48l1.31-1.25 1.56-3.51 2.15-2.15h1.43l1.42-1.42v-1.74l1-1 1.25 1.26h1l1.38-1.38h1.19l.6-1.55 2.91-3-1.54-1.6V349l1.67-.84v-3.22l1.61-1.67 1 1v2.14l-1 1v2.09l1.31 1.31v3.76l4.88 1-.07 3.81.25.19 1.79 8.46.48.77 1.73 1.43.29.65 2.56 2.21-.11 4.95 1.67 3v1.08l2.85 3.76.66 3.09.72 1.12.17 1 3.64 4.47 1.25.54 1.25 1.2.48 2.19-1.37 1.19-1.49 2.86.78 6.51 2 .95 1.19 1.67 1.31 4.28 2 1.14 3-.12.83-.77 7.32-.48.36-2.81.48-.47v-.89l-1.31-1.31.47-1 1.38-1v-.72l1-1.07 2.39-.29 1.85-2.16h1.07l1.13-.41h6.55l.3 1.19 1.67 1.67 1.43-2.8 1-.95 1-2 .24-1.86 2-1.9v-1l2.1-2.74.16-1.85.54-.53.18-6h.47l.72-1.56-.3-5.84-.77-1.48 1.37-.13V372l1-2-.66-1.79-.29-.29 1-.9.3-.89-1.18-1.25 2.91-.36 1.9-1.91 1.62.3 2.61-.71 2-2.28-.17-1.19.29-.29.78.35.77 1v1l6.2-5.9-1.73-1.9-.42-1.38h1.2v1.67l1.66 1.08 1.8-.3-.73-1.61-1.42-.94v-.67l2.32-2.62 1.91-.36 2.79-4.35-2.31-3-1.67-.77-3.17-3.28.13-1-2.92-1.31-1.43-1.49h-1.66l-4-2.87-3.51-.53v-8.87l-.42-1.19.06-6.32 2.33-2.93-.42-1.42.95-.9v-1.25l1.14-1.13v-2l.83-1.36-1.73-1.14.59-3.22 3.52-.3 1.07-.6.72-5.17-.59-1.56 2 2.15 2.73-.9 1.63-2.15 1.61-.67.47-1.37 1.67-1.73 3.64-.65 6.78-5.24h1l1.74-1.5 1.6-.41 2.15-1.84 3.27-1.32h1.73l.18-1 1.61-1.61v-.84l7.21-8.1.06-.78-.3-1.06-2.8-2.68-.72-1.85h.6l.71-1.67 2.45-2.09.6-3 .83-.83.23-1.61-.36-.71.85-.84h1.78l1.31-1.37V243l1-1h1.5l1.38-.59v-1l.77-2.08 3.17.3V238l1.06-.71h.78l.89.89 1.54.72 16.16-.78 1.66 1.67h1.44l.89.9 1.07-.13 2 2.15 2 .6.31 3.15-.6 2.39.41 2 1.37 1.48v.78l-.77 1.19-.18 1h-5.43l-.76.71-1 .48-12.4 13.41-1.55.54-.66.6-.12 1.07-.89.89-1.25-.12-1.74.78-1.71 3.28-2.81.77-.83-.6-2.09 2.51v3.75l-.65.66-1.5.71-6.6-.12-1 1.67-.53 3.69-1.56.6-1.45 2.42v7.08l1.26.72v.89l.3.95v5.84l1.66 1.19 1.32 4.71-.73.77.42 2.81-.71.78.12 2.5-.9.89-.89 5.61.54 1.9.83.89 2.68 1.26 1.31 1.36H672l.59.6 4 1.19.61.66-.72 2 4.53-.31v.43l.53.53.07.65 2.55 2.56 15.74-.82v-.79l2.74-1.84 3.46.18 6.73-2.86.84.48 2.85-.36.29-.29h1.09l4.05-2 1.6.54 13.65-.7 39-36.53 2.26-5.42v-1.61l-17.1-13.53 3.82-2.56 2.26-4 .12-1.38-6-5.29v-2.51l.71-.95v-1.31l-4.17-2.75-1.25-2.38 1.86-2.09v-1.07l-.61-.66 1.32-8.46 3.45-.29v-3.52L751 217.7l.05-1.13 9.24-12 .59-1.67v-.83l-8.88-8.4-2.56-.66-3.75-3.87-1.09-2.44v-1.73l2.15-2-.29-4.12-.72-.78.84-1.36H748l1-1.85h2.62l2.69-2.68 1.18-2.74H757l.6-.6h2.74l3.57-4.34 1.55-1 2.57 2 2.85.11.73-.71-.42-2.56 1.37-1.37-1.56-1.72-1.19 1.19-2.39.6-1.72-2-1.44 1.37h-5.36V159l-2.5-2.44H755l-1.77-1.61-1.56-.18-3-1.37 2.57-.78 2.56 1.2h10.25l3.93-3.58h2l2.38-.89h1.07l-1.48-1.49v-2.39l-5.77-1.07-3.66-2.85h-7.92l.25-1.62-1.38-1.36-5.55-.19-2.92 2.52v1.36l-2.56 5.55v-1.37l-1.68-.78v-1.91l-.71-.65 1.19-1.19-.6-.6h-2.26V140l2.86-2.09 3.33-.77-.77-.77v-1.19H742v-1.8h-2.38l-1.43.72-3.87.06-1.37.6-.78.83-.18 1.55.66 2.44-2.62 2.08-1.13 2.51v1.13l-1.07-.06-.54.48-.83-.48-2.74 2h-1.2l.12-5 .89-.9.19-5.36L723 137h-1.32l-1.68 1.75-1.25-.12-8.4 8.23-.9 4.59-.83.89-2.5.12-.66-.72-.24-1.61.9-1v-2.44l.89-.89-.77-1 1.85-.48 4.22-4.47h1l1.38-3.51 3.87.06-3.7-3.7h-3l-1 2 1.26 1.25-2.27.71-.9.9h-1.36l-1.79-1v-1h-1.73l-3.57 1.55v1.19l-1.2 1.8h1.2v2.13h-4.12l.37 3.4-5.75.37-.95 1-.78 2.39-4.24 2.32v1.31l1.26 1.31-2.62.84-2.56-2v-1.91l-.89-.89v-2.15l-2.75 1.37-1 1-2 .95-3-1.25-1.47.71-2.56-1h-3.76v1.13l2.56 1 2.21 2.21 2 .18v1.37l-1.42 2v-.95l-2.75.17-1.73-1.79-2.2.78-.36 3h-2l-1.25-1.25-3.46 4.23 1.21 2.08h-1.26l-7.33 4.71 2.08-2.09v-.94l1.79-1.62v-1.36l.95-1v-4.35l-5.89 3.34-.89 1.49.89.89-2.14 2.92-1.8.59.6-.59 1-5.18h-5.66l-1.08 1.07-.77 2.14V166l2.57 2.69h-1.85l-2.26-2.27-1-2v-3.7h-3l-1.67 1.67v1.78l2.14 1.79-.17 1.19 2.14 2.21h-2.14l-.73 1.07-4.4-4.47h-2.15v-1.19l1.13-1.79-4.4 1.73-1.5 1.43h-1.72l-2 2-2.67 1.07 2.24 2.26-1.35 1.38 1.19 1.6 3-.12 2-2.08 2.33 1.07-2.09 2.08-.24 2.39 1 1 .48 1.5-1.49 1.43-3.64-1.68-1.73 1.74-3 1.48-1.24 1.32.77 1.54 4.89 1 .83-.83h3.63l-2.26 2.25h-.77l-.84.78v.83l-1.72-1.42h-2.56l-4.06-1.38v2.09l1.25 1.31-3.09 3.94.17 2.14-1.91.3L604 196v-3.75h-2.3l-2.57 2.56 2.15 2.39-1.54.78h-2.39l-2.56-1.2-1.79.59-.6.61-.78 1.6-2.08 2 3.69.18 1.38-1.38 3.51.6 1.2 1.2-.78.77h-2.75l-.83.83 2 2h1.71l.67 1.55-4.71-.35-2.86-1.31-.89.89-5.14 1.78 3.17 1.8 11.62.35-5.12 2.21h-1.2l-2.31-1.38-4.67.31-2.86 2.86-3 .47-4.77 3.94.6.6-3.4 3.09.78 1.72-1.8 1.8h-2l-.3 1.31 1.68 1.67 7-.54-2.87 2.5-6.91.6 1 5.06-.61-.59h-2.25l-2 .89v.99l-1.26 1.25-1.25.3-.9.89.59 2h1.38l.59 2.38h-1l-1.79-.66h-.83l-2.09 2 1.38 1.43h2.14V249h1.37l2.86-.89-3.44 3.89-8.82.35v2.57l.95 1-2.26.65-1.26 1.32v1.19l2 1.79-1.54 1.54-.42 1.61h-2.15l-1.6-1.61h-3.97l-.59 1.61-1.8.19-.66 1.66-1.49 1.49h-1.54l-1.61 1.6.59 1.56V272h-1.48l-2.86 2.86 1.13 1.13-.9.83 1 2.39 1.37.24.83-.84h1.73l1.37-1.37h1l2.13-.72h1.08l1.61-1.55-2.11-2.09h2.39l3.51-2.74h2.38l-.29 1.49-2.26.66-1.37 1.79 1.37 1.37v.89h-3l-1.91 1.9.3 1.08.88.89-.58 1.19-7.63-.41-.3 1.48-.89.9-2.38.35v-2.56l-2-2-1.49-.65-5.44 5.49v-2.6l-.54.6h-3.15l-1.6 2.56v2h-1.37l-.77 1.36 3.52 3.59-3.17-1.08h-1.66l-1.25-1.31h-1.38l3.75 3.75v1.79l-2.8-2.8h-1.72l-1.6-1.55v-1.61H509l-1.21 1h-6.49l-.29 1.48 1.67 1.67h2.38l3.15 1.37-2.2 2.21h-3.51l-2.81-1-4.89.77 2.76 1.91h1.89l3.94 4.52-1.14 1.07V302l-7.5-3.53 1 1.14h-1.55v3l-1-1-2.62-.31-1.31 1.31 2.56 2.56-6.67-.22-2.1 2.08 4.24 2.08 1 .95-9.3.94v1.67l2.85 2.86 2.88 1.62zm443.17 144.1h.41l1-1-1.41 1z" fill="#7C9F87" opacity=".8"/></svg>