<?xml version="1.0" encoding="UTF-8"?>
<svg width="480px" height="290px" viewBox="0 0 480 290" version="1.1" xmlns="http://www.w3.org/2000/svg" xmlns:xlink="http://www.w3.org/1999/xlink">
    <title>Illustration</title>
    <g id="Page-1" stroke="none" stroke-width="1" fill="none" fill-rule="evenodd">
        <g id="Illustration" fill-rule="nonzero">
            <g id="Left" transform="translate(0.000000, 95.000000)">
                <polygon id="Triangle" fill="#7C9F87" opacity="0.2" points="174.010513 194.160128 214 194.160128 126.994744 0 87.0052563 0 0 194.160128"></polygon>
                <path d="M51.39,141 L52.93,137.5 L60.37,137.5 L61.91,141 L64.01,141 L57.65,127 L55.67,127 L49.33,141 L51.39,141 Z M59.67,135.9 L53.63,135.9 L56.65,129.04 L59.67,135.9 Z M67.73,141 L67.73,135.54 C67.73,134.406667 68.03,133.536667 68.63,132.93 C69.23,132.323333 70.05,132.02 71.09,132.02 C72.01,132.02 72.7166667,132.28 73.21,132.8 C73.7033333,133.32 73.95,134.093333 73.95,135.12 L73.95,135.12 L73.95,141 L75.87,141 L75.87,134.9 C75.87,133.393333 75.4733333,132.25 74.68,131.47 C73.8866667,130.69 72.8166667,130.3 71.47,130.3 C70.63,130.3 69.88,130.446667 69.22,130.74 C68.56,131.033333 68.0366667,131.453333 67.65,132 L67.65,132 L67.65,130.4 L65.81,130.4 L65.81,141 L67.73,141 Z M82.47,141.12 C83.8833333,141.12 85,140.836667 85.82,140.27 C86.64,139.703333 87.05,138.94 87.05,137.98 C87.05,137.26 86.8633333,136.7 86.49,136.3 C86.1166667,135.9 85.6666667,135.616667 85.14,135.45 C84.6133333,135.283333 83.9233333,135.126667 83.07,134.98 C82.43,134.86 81.9333333,134.753333 81.58,134.66 C81.2266667,134.566667 80.93,134.42 80.69,134.22 C80.45,134.02 80.33,133.746667 80.33,133.4 C80.33,132.96 80.5433333,132.606667 80.97,132.34 C81.3966667,132.073333 82.0166667,131.94 82.83,131.94 C84.0033333,131.94 85.0233333,132.22 85.89,132.78 L85.89,132.78 L86.71,131.26 C86.2566667,130.966667 85.6766667,130.733333 84.97,130.56 C84.2633333,130.386667 83.5566667,130.3 82.85,130.3 C81.5033333,130.3 80.43,130.59 79.63,131.17 C78.83,131.75 78.43,132.52 78.43,133.48 C78.43,134.226667 78.6233333,134.806667 79.01,135.22 C79.3966667,135.633333 79.86,135.926667 80.4,136.1 C80.94,136.273333 81.6366667,136.426667 82.49,136.56 C83.1166667,136.666667 83.6,136.763333 83.94,136.85 C84.28,136.936667 84.5633333,137.073333 84.79,137.26 C85.0166667,137.446667 85.13,137.7 85.13,138.02 C85.13,138.98 84.29,139.46 82.61,139.46 C81.93,139.46 81.2566667,139.36 80.59,139.16 C79.9233333,138.96 79.3566667,138.693333 78.89,138.36 L78.89,138.36 L78.09,139.88 C78.5433333,140.24 79.17,140.536667 79.97,140.77 C80.77,141.003333 81.6033333,141.12 82.47,141.12 Z M93.09,141.12 C93.53,141.12 93.9566667,141.056667 94.37,140.93 C94.7833333,140.803333 95.13,140.62 95.41,140.38 L95.41,140.38 L94.81,139 C94.3966667,139.333333 93.8966667,139.5 93.31,139.5 C92.7766667,139.5 92.3666667,139.346667 92.08,139.04 C91.7933333,138.733333 91.65,138.293333 91.65,137.72 L91.65,137.72 L91.65,131.98 L94.69,131.98 L94.69,130.4 L91.65,130.4 L91.65,128.08 L89.73,128.08 L89.73,130.4 L87.93,130.4 L87.93,131.98 L89.73,131.98 L89.73,137.8 C89.73,138.866667 90.0233333,139.686667 90.61,140.26 C91.1966667,140.833333 92.0233333,141.12 93.09,141.12 Z M99.87,128.52 C100.15,128.52 100.39,128.423333 100.59,128.23 C100.79,128.036667 100.89,127.793333 100.89,127.5 C100.89,127.206667 100.79,126.96 100.59,126.76 C100.39,126.56 100.15,126.46 99.87,126.46 C99.59,126.46 99.35,126.56 99.15,126.76 C98.95,126.96 98.85,127.206667 98.85,127.5 C98.85,127.793333 98.95,128.036667 99.15,128.23 C99.35,128.423333 99.59,128.52 99.87,128.52 Z M103.59,128.52 C103.87,128.52 104.11,128.423333 104.31,128.23 C104.51,128.036667 104.61,127.793333 104.61,127.5 C104.61,127.206667 104.51,126.96 104.31,126.76 C104.11,126.56 103.87,126.46 103.59,126.46 C103.31,126.46 103.07,126.56 102.87,126.76 C102.67,126.96 102.57,127.206667 102.57,127.5 C102.57,127.793333 102.67,128.036667 102.87,128.23 C103.07,128.423333 103.31,128.52 103.59,128.52 Z M100.83,141.12 C101.643333,141.12 102.346667,140.99 102.94,140.73 C103.533333,140.47 103.99,140.093333 104.31,139.6 L104.31,139.6 L104.31,141 L106.13,141 L106.13,134.6 C106.13,133.173333 105.74,132.1 104.96,131.38 C104.18,130.66 103.056667,130.3 101.59,130.3 C100.736667,130.3 99.93,130.416667 99.17,130.65 C98.41,130.883333 97.7566667,131.22 97.21,131.66 L97.21,131.66 L98.01,133.1 C98.4233333,132.753333 98.93,132.476667 99.53,132.27 C100.13,132.063333 100.743333,131.96 101.37,131.96 C102.303333,131.96 103.01,132.18 103.49,132.62 C103.97,133.06 104.21,133.693333 104.21,134.52 L104.21,134.52 L104.21,134.9 L101.17,134.9 C99.69,134.9 98.61,135.183333 97.93,135.75 C97.25,136.316667 96.91,137.066667 96.91,138 C96.91,138.933333 97.2666667,139.686667 97.98,140.26 C98.6933333,140.833333 99.6433333,141.12 100.83,141.12 Z M101.15,139.64 C100.416667,139.64 99.8433333,139.486667 99.43,139.18 C99.0166667,138.873333 98.81,138.453333 98.81,137.92 C98.81,136.826667 99.6233333,136.28 101.25,136.28 L101.25,136.28 L104.21,136.28 L104.21,137.76 C103.97,138.36 103.583333,138.823333 103.05,139.15 C102.516667,139.476667 101.883333,139.64 101.15,139.64 Z M111.61,141 L111.61,126.16 L109.69,126.16 L109.69,141 L111.61,141 Z M117.19,141 L117.19,126.16 L115.27,126.16 L115.27,141 L117.19,141 Z M125.23,141.12 C126.016667,141.12 126.736667,140.966667 127.39,140.66 C128.043333,140.353333 128.583333,139.906667 129.01,139.32 L129.01,139.32 L129.01,141 L130.85,141 L130.85,126.16 L128.93,126.16 L128.93,132 C128.503333,131.44 127.97,131.016667 127.33,130.73 C126.69,130.443333 125.99,130.3 125.23,130.3 C124.203333,130.3 123.283333,130.526667 122.47,130.98 C121.656667,131.433333 121.02,132.066667 120.56,132.88 C120.1,133.693333 119.87,134.633333 119.87,135.7 C119.87,136.766667 120.1,137.71 120.56,138.53 C121.02,139.35 121.656667,139.986667 122.47,140.44 C123.283333,140.893333 124.203333,141.12 125.23,141.12 Z M125.39,139.44 C124.71,139.44 124.1,139.283333 123.56,138.97 C123.02,138.656667 122.593333,138.216667 122.28,137.65 C121.966667,137.083333 121.81,136.433333 121.81,135.7 C121.81,134.966667 121.966667,134.316667 122.28,133.75 C122.593333,133.183333 123.02,132.746667 123.56,132.44 C124.1,132.133333 124.71,131.98 125.39,131.98 C126.056667,131.98 126.663333,132.133333 127.21,132.44 C127.756667,132.746667 128.183333,133.183333 128.49,133.75 C128.796667,134.316667 128.95,134.966667 128.95,135.7 C128.95,136.433333 128.796667,137.083333 128.49,137.65 C128.183333,138.216667 127.756667,138.656667 127.21,138.97 C126.663333,139.283333 126.056667,139.44 125.39,139.44 Z M141.79,144.88 L141.79,139.4 C142.23,139.96 142.766667,140.386667 143.4,140.68 C144.033333,140.973333 144.73,141.12 145.49,141.12 C146.516667,141.12 147.436667,140.893333 148.25,140.44 C149.063333,139.986667 149.7,139.35 150.16,138.53 C150.62,137.71 150.85,136.766667 150.85,135.7 C150.85,134.633333 150.62,133.693333 150.16,132.88 C149.7,132.066667 149.063333,131.433333 148.25,130.98 C147.436667,130.526667 146.516667,130.3 145.49,130.3 C144.703333,130.3 143.983333,130.45 143.33,130.75 C142.676667,131.05 142.136667,131.493333 141.71,132.08 L141.71,132.08 L141.71,130.4 L139.87,130.4 L139.87,144.88 L141.79,144.88 Z M145.33,139.44 C144.663333,139.44 144.056667,139.283333 143.51,138.97 C142.963333,138.656667 142.536667,138.216667 142.23,137.65 C141.923333,137.083333 141.77,136.433333 141.77,135.7 C141.77,134.966667 141.926667,134.32 142.24,133.76 C142.553333,133.2 142.98,132.763333 143.52,132.45 C144.06,132.136667 144.663333,131.98 145.33,131.98 C146.01,131.98 146.62,132.133333 147.16,132.44 C147.7,132.746667 148.126667,133.183333 148.44,133.75 C148.753333,134.316667 148.91,134.966667 148.91,135.7 C148.91,136.433333 148.753333,137.083333 148.44,137.65 C148.126667,138.216667 147.7,138.656667 147.16,138.97 C146.62,139.283333 146.01,139.44 145.33,139.44 Z M157.49,129.12 C158.116667,129.12 158.643333,128.91 159.07,128.49 C159.496667,128.07 159.71,127.56 159.71,126.96 C159.71,126.36 159.496667,125.843333 159.07,125.41 C158.643333,124.976667 158.116667,124.76 157.49,124.76 C156.876667,124.76 156.356667,124.976667 155.93,125.41 C155.503333,125.843333 155.29,126.36 155.29,126.96 C155.29,127.56 155.503333,128.07 155.93,128.49 C156.356667,128.91 156.876667,129.12 157.49,129.12 Z M157.49,128.28 C157.116667,128.28 156.806667,128.153333 156.56,127.9 C156.313333,127.646667 156.19,127.333333 156.19,126.96 C156.19,126.573333 156.313333,126.253333 156.56,126 C156.806667,125.746667 157.116667,125.62 157.49,125.62 C157.863333,125.62 158.176667,125.746667 158.43,126 C158.683333,126.253333 158.81,126.573333 158.81,126.96 C158.81,127.333333 158.686667,127.646667 158.44,127.9 C158.193333,128.153333 157.876667,128.28 157.49,128.28 Z M156.61,141.12 C157.423333,141.12 158.126667,140.99 158.72,140.73 C159.313333,140.47 159.77,140.093333 160.09,139.6 L160.09,139.6 L160.09,141 L161.91,141 L161.91,134.6 C161.91,133.173333 161.52,132.1 160.74,131.38 C159.96,130.66 158.836667,130.3 157.37,130.3 C156.516667,130.3 155.71,130.416667 154.95,130.65 C154.19,130.883333 153.536667,131.22 152.99,131.66 L152.99,131.66 L153.79,133.1 C154.203333,132.753333 154.71,132.476667 155.31,132.27 C155.91,132.063333 156.523333,131.96 157.15,131.96 C158.083333,131.96 158.79,132.18 159.27,132.62 C159.75,133.06 159.99,133.693333 159.99,134.52 L159.99,134.52 L159.99,134.9 L156.95,134.9 C155.47,134.9 154.39,135.183333 153.71,135.75 C153.03,136.316667 152.69,137.066667 152.69,138 C152.69,138.933333 153.046667,139.686667 153.76,140.26 C154.473333,140.833333 155.423333,141.12 156.61,141.12 Z M156.93,139.64 C156.196667,139.64 155.623333,139.486667 155.21,139.18 C154.796667,138.873333 154.59,138.453333 154.59,137.92 C154.59,136.826667 155.403333,136.28 157.03,136.28 L157.03,136.28 L159.99,136.28 L159.99,137.76 C159.75,138.36 159.363333,138.823333 158.83,139.15 C158.296667,139.476667 157.663333,139.64 156.93,139.64 Z M60.29,167 L61.83,163.5 L69.27,163.5 L70.81,167 L72.91,167 L66.55,153 L64.57,153 L58.23,167 L60.29,167 Z M68.57,161.9 L62.53,161.9 L65.55,155.04 L68.57,161.9 Z M76.63,167 L76.63,152.16 L74.71,152.16 L74.71,167 L76.63,167 Z M82.21,170.88 L82.21,165.4 C82.65,165.96 83.1866667,166.386667 83.82,166.68 C84.4533333,166.973333 85.15,167.12 85.91,167.12 C86.9366667,167.12 87.8566667,166.893333 88.67,166.44 C89.4833333,165.986667 90.12,165.35 90.58,164.53 C91.04,163.71 91.27,162.766667 91.27,161.7 C91.27,160.633333 91.04,159.693333 90.58,158.88 C90.12,158.066667 89.4833333,157.433333 88.67,156.98 C87.8566667,156.526667 86.9366667,156.3 85.91,156.3 C85.1233333,156.3 84.4033333,156.45 83.75,156.75 C83.0966667,157.05 82.5566667,157.493333 82.13,158.08 L82.13,158.08 L82.13,156.4 L80.29,156.4 L80.29,170.88 L82.21,170.88 Z M85.75,165.44 C85.0833333,165.44 84.4766667,165.283333 83.93,164.97 C83.3833333,164.656667 82.9566667,164.216667 82.65,163.65 C82.3433333,163.083333 82.19,162.433333 82.19,161.7 C82.19,160.966667 82.3466667,160.32 82.66,159.76 C82.9733333,159.2 83.4,158.763333 83.94,158.45 C84.48,158.136667 85.0833333,157.98 85.75,157.98 C86.43,157.98 87.04,158.133333 87.58,158.44 C88.12,158.746667 88.5466667,159.183333 88.86,159.75 C89.1733333,160.316667 89.33,160.966667 89.33,161.7 C89.33,162.433333 89.1733333,163.083333 88.86,163.65 C88.5466667,164.216667 88.12,164.656667 87.58,164.97 C87.04,165.283333 86.43,165.44 85.75,165.44 Z M95.85,167 L95.85,161.54 C95.85,160.406667 96.15,159.536667 96.75,158.93 C97.35,158.323333 98.17,158.02 99.21,158.02 C100.13,158.02 100.836667,158.28 101.33,158.8 C101.823333,159.32 102.07,160.093333 102.07,161.12 L102.07,161.12 L102.07,167 L103.99,167 L103.99,160.9 C103.99,159.393333 103.593333,158.25 102.8,157.47 C102.006667,156.69 100.936667,156.3 99.59,156.3 C98.79,156.3 98.0666667,156.44 97.42,156.72 C96.7733333,157 96.25,157.393333 95.85,157.9 L95.85,157.9 L95.85,152.16 L93.93,152.16 L93.93,167 L95.85,167 Z M110.65,167.12 C111.463333,167.12 112.166667,166.99 112.76,166.73 C113.353333,166.47 113.81,166.093333 114.13,165.6 L114.13,165.6 L114.13,167 L115.95,167 L115.95,160.6 C115.95,159.173333 115.56,158.1 114.78,157.38 C114,156.66 112.876667,156.3 111.41,156.3 C110.556667,156.3 109.75,156.416667 108.99,156.65 C108.23,156.883333 107.576667,157.22 107.03,157.66 L107.03,157.66 L107.83,159.1 C108.243333,158.753333 108.75,158.476667 109.35,158.27 C109.95,158.063333 110.563333,157.96 111.19,157.96 C112.123333,157.96 112.83,158.18 113.31,158.62 C113.79,159.06 114.03,159.693333 114.03,160.52 L114.03,160.52 L114.03,160.9 L110.99,160.9 C109.51,160.9 108.43,161.183333 107.75,161.75 C107.07,162.316667 106.73,163.066667 106.73,164 C106.73,164.933333 107.086667,165.686667 107.8,166.26 C108.513333,166.833333 109.463333,167.12 110.65,167.12 Z M110.97,165.64 C110.236667,165.64 109.663333,165.486667 109.25,165.18 C108.836667,164.873333 108.63,164.453333 108.63,163.92 C108.63,162.826667 109.443333,162.28 111.07,162.28 L111.07,162.28 L114.03,162.28 L114.03,163.76 C113.79,164.36 113.403333,164.823333 112.87,165.15 C112.336667,165.476667 111.703333,165.64 110.97,165.64 Z M123.89,167.12 C124.676667,167.12 125.396667,166.966667 126.05,166.66 C126.703333,166.353333 127.243333,165.906667 127.67,165.32 L127.67,165.32 L127.67,167 L129.51,167 L129.51,152.16 L127.59,152.16 L127.59,158 C127.163333,157.44 126.63,157.016667 125.99,156.73 C125.35,156.443333 124.65,156.3 123.89,156.3 C122.863333,156.3 121.943333,156.526667 121.13,156.98 C120.316667,157.433333 119.68,158.066667 119.22,158.88 C118.76,159.693333 118.53,160.633333 118.53,161.7 C118.53,162.766667 118.76,163.71 119.22,164.53 C119.68,165.35 120.316667,165.986667 121.13,166.44 C121.943333,166.893333 122.863333,167.12 123.89,167.12 Z M124.05,165.44 C123.37,165.44 122.76,165.283333 122.22,164.97 C121.68,164.656667 121.253333,164.216667 120.94,163.65 C120.626667,163.083333 120.47,162.433333 120.47,161.7 C120.47,160.966667 120.626667,160.316667 120.94,159.75 C121.253333,159.183333 121.68,158.746667 122.22,158.44 C122.76,158.133333 123.37,157.98 124.05,157.98 C124.716667,157.98 125.323333,158.133333 125.87,158.44 C126.416667,158.746667 126.843333,159.183333 127.15,159.75 C127.456667,160.316667 127.61,160.966667 127.61,161.7 C127.61,162.433333 127.456667,163.083333 127.15,163.65 C126.843333,164.216667 126.416667,164.656667 125.87,164.97 C125.323333,165.283333 124.716667,165.44 124.05,165.44 Z M137.87,167.12 C138.75,167.12 139.546667,166.973333 140.26,166.68 C140.973333,166.386667 141.57,165.96 142.05,165.4 L142.05,165.4 L140.99,164.16 C140.216667,165.013333 139.196667,165.44 137.93,165.44 C136.89,165.44 136.02,165.156667 135.32,164.59 C134.62,164.023333 134.21,163.273333 134.09,162.34 L134.09,162.34 L142.69,162.34 C142.716667,162.1 142.73,161.906667 142.73,161.76 C142.73,160.693333 142.506667,159.746667 142.06,158.92 C141.613333,158.093333 140.993333,157.45 140.2,156.99 C139.406667,156.53 138.503333,156.3 137.49,156.3 C136.476667,156.3 135.566667,156.53 134.76,156.99 C133.953333,157.45 133.32,158.093333 132.86,158.92 C132.4,159.746667 132.17,160.673333 132.17,161.7 C132.17,162.74 132.406667,163.673333 132.88,164.5 C133.353333,165.326667 134.023333,165.97 134.89,166.43 C135.756667,166.89 136.75,167.12 137.87,167.12 Z M140.89,160.96 L134.09,160.96 C134.196667,160.053333 134.56,159.32 135.18,158.76 C135.8,158.2 136.57,157.92 137.49,157.92 C138.41,157.92 139.18,158.203333 139.8,158.77 C140.42,159.336667 140.783333,160.066667 140.89,160.96 L140.89,160.96 Z M150.13,167 L154.77,156.4 L152.89,156.4 L149.17,164.9 L145.53,156.4 L143.53,156.4 L148.17,167 L150.13,167 Z" id="AnställdpåAlphadev" fill="#44374C"></path>
            </g>
            <g id="Right" transform="translate(266.000000, 95.000000)">
                <polygon id="Triangle" fill="#7C9F87" opacity="0.2" points="174.010513 194.160128 214 194.160128 126.994744 0 87.0052563 0 0 194.160128"></polygon>
                <path d="M95.9,135 L95.9,133.26 L87.74,133.26 L87.74,128.74 L94.76,128.74 L94.76,127.04 L87.74,127.04 L87.74,122.74 L95.62,122.74 L95.62,121 L85.74,121 L85.74,135 L95.9,135 Z M103.5,139 C105.326667,139 106.7,138.556667 107.62,137.67 C108.54,136.783333 109,135.413333 109,133.56 L109,133.56 L109,124.4 L107.18,124.4 L107.18,126.04 C106.74,125.466667 106.176667,125.033333 105.49,124.74 C104.803333,124.446667 104.06,124.3 103.26,124.3 C102.246667,124.3 101.33,124.513333 100.51,124.94 C99.69,125.366667 99.0466667,125.97 98.58,126.75 C98.1133333,127.53 97.88,128.42 97.88,129.42 C97.88,130.42 98.1133333,131.31 98.58,132.09 C99.0466667,132.87 99.69,133.476667 100.51,133.91 C101.33,134.343333 102.246667,134.56 103.26,134.56 C104.033333,134.56 104.75,134.423333 105.41,134.15 C106.07,133.876667 106.626667,133.466667 107.08,132.92 L107.08,132.92 L107.08,133.76 C107.08,134.96 106.783333,135.853333 106.19,136.44 C105.596667,137.026667 104.68,137.32 103.44,137.32 C102.666667,137.32 101.916667,137.196667 101.19,136.95 C100.463333,136.703333 99.8533333,136.366667 99.36,135.94 L99.36,135.94 L98.44,137.42 C99,137.926667 99.7333333,138.316667 100.64,138.59 C101.546667,138.863333 102.5,139 103.5,139 Z M103.48,132.88 C102.773333,132.88 102.143333,132.733333 101.59,132.44 C101.036667,132.146667 100.603333,131.736667 100.29,131.21 C99.9766667,130.683333 99.82,130.086667 99.82,129.42 C99.82,128.393333 100.16,127.563333 100.84,126.93 C101.52,126.296667 102.4,125.98 103.48,125.98 C104.546667,125.98 105.42,126.296667 106.1,126.93 C106.78,127.563333 107.12,128.393333 107.12,129.42 C107.12,130.086667 106.963333,130.683333 106.65,131.21 C106.336667,131.736667 105.903333,132.146667 105.35,132.44 C104.796667,132.733333 104.173333,132.88 103.48,132.88 Z M117.38,135.12 C118.26,135.12 119.056667,134.973333 119.77,134.68 C120.483333,134.386667 121.08,133.96 121.56,133.4 L121.56,133.4 L120.5,132.16 C119.726667,133.013333 118.706667,133.44 117.44,133.44 C116.4,133.44 115.53,133.156667 114.83,132.59 C114.13,132.023333 113.72,131.273333 113.6,130.34 L113.6,130.34 L122.2,130.34 C122.226667,130.1 122.24,129.906667 122.24,129.76 C122.24,128.693333 122.016667,127.746667 121.57,126.92 C121.123333,126.093333 120.503333,125.45 119.71,124.99 C118.916667,124.53 118.013333,124.3 117,124.3 C115.986667,124.3 115.076667,124.53 114.27,124.99 C113.463333,125.45 112.83,126.093333 112.37,126.92 C111.91,127.746667 111.68,128.673333 111.68,129.7 C111.68,130.74 111.916667,131.673333 112.39,132.5 C112.863333,133.326667 113.533333,133.97 114.4,134.43 C115.266667,134.89 116.26,135.12 117.38,135.12 Z M120.4,128.96 L113.6,128.96 C113.706667,128.053333 114.07,127.32 114.69,126.76 C115.31,126.2 116.08,125.92 117,125.92 C117.92,125.92 118.69,126.203333 119.31,126.77 C119.93,127.336667 120.293333,128.066667 120.4,128.96 L120.4,128.96 Z M128.54,135.12 C128.98,135.12 129.406667,135.056667 129.82,134.93 C130.233333,134.803333 130.58,134.62 130.86,134.38 L130.86,134.38 L130.26,133 C129.846667,133.333333 129.346667,133.5 128.76,133.5 C128.226667,133.5 127.816667,133.346667 127.53,133.04 C127.243333,132.733333 127.1,132.293333 127.1,131.72 L127.1,131.72 L127.1,125.98 L130.14,125.98 L130.14,124.4 L127.1,124.4 L127.1,122.08 L125.18,122.08 L125.18,124.4 L123.38,124.4 L123.38,125.98 L125.18,125.98 L125.18,131.8 C125.18,132.866667 125.473333,133.686667 126.06,134.26 C126.646667,134.833333 127.473333,135.12 128.54,135.12 Z M74.4,161 L74.4,151.98 L77.44,151.98 L77.44,150.4 L74.36,150.4 L74.36,149.48 C74.36,148.24 74.9333333,147.62 76.08,147.62 C76.6266667,147.62 77.12,147.786667 77.56,148.12 L77.56,148.12 L78.14,146.66 C77.8733333,146.46 77.5533333,146.306667 77.18,146.2 C76.8066667,146.093333 76.4066667,146.04 75.98,146.04 C74.8733333,146.04 74.0133333,146.346667 73.4,146.96 C72.7866667,147.573333 72.48,148.406667 72.48,149.46 L72.48,149.46 L72.48,150.4 L70.68,150.4 L70.68,151.98 L72.48,151.98 L72.48,161 L74.4,161 Z M81.92,148.52 C82.2,148.52 82.44,148.423333 82.64,148.23 C82.84,148.036667 82.94,147.793333 82.94,147.5 C82.94,147.206667 82.84,146.96 82.64,146.76 C82.44,146.56 82.2,146.46 81.92,146.46 C81.64,146.46 81.4,146.56 81.2,146.76 C81,146.96 80.9,147.206667 80.9,147.5 C80.9,147.793333 81,148.036667 81.2,148.23 C81.4,148.423333 81.64,148.52 81.92,148.52 Z M85.64,148.52 C85.92,148.52 86.16,148.423333 86.36,148.23 C86.56,148.036667 86.66,147.793333 86.66,147.5 C86.66,147.206667 86.56,146.96 86.36,146.76 C86.16,146.56 85.92,146.46 85.64,146.46 C85.36,146.46 85.12,146.56 84.92,146.76 C84.72,146.96 84.62,147.206667 84.62,147.5 C84.62,147.793333 84.72,148.036667 84.92,148.23 C85.12,148.423333 85.36,148.52 85.64,148.52 Z M83.8,161.12 C84.8533333,161.12 85.7966667,160.886667 86.63,160.42 C87.4633333,159.953333 88.1166667,159.31 88.59,158.49 C89.0633333,157.67 89.3,156.74 89.3,155.7 C89.3,154.66 89.0633333,153.73 88.59,152.91 C88.1166667,152.09 87.4633333,151.45 86.63,150.99 C85.7966667,150.53 84.8533333,150.3 83.8,150.3 C82.7466667,150.3 81.8,150.53 80.96,150.99 C80.12,151.45 79.4633333,152.09 78.99,152.91 C78.5166667,153.73 78.28,154.66 78.28,155.7 C78.28,156.74 78.5166667,157.67 78.99,158.49 C79.4633333,159.31 80.12,159.953333 80.96,160.42 C81.8,160.886667 82.7466667,161.12 83.8,161.12 Z M83.8,159.44 C83.12,159.44 82.51,159.283333 81.97,158.97 C81.43,158.656667 81.0033333,158.216667 80.69,157.65 C80.3766667,157.083333 80.22,156.433333 80.22,155.7 C80.22,154.966667 80.3766667,154.316667 80.69,153.75 C81.0033333,153.183333 81.43,152.746667 81.97,152.44 C82.51,152.133333 83.12,151.98 83.8,151.98 C84.48,151.98 85.09,152.133333 85.63,152.44 C86.17,152.746667 86.5933333,153.183333 86.9,153.75 C87.2066667,154.316667 87.36,154.966667 87.36,155.7 C87.36,156.433333 87.2066667,157.083333 86.9,157.65 C86.5933333,158.216667 86.17,158.656667 85.63,158.97 C85.09,159.283333 84.48,159.44 83.8,159.44 Z M93.88,161 L93.88,155.72 C93.88,154.573333 94.1766667,153.69 94.77,153.07 C95.3633333,152.45 96.18,152.14 97.22,152.14 C97.4066667,152.14 97.5533333,152.146667 97.66,152.16 L97.66,152.16 L97.66,150.3 C96.7266667,150.3 95.9333333,150.46 95.28,150.78 C94.6266667,151.1 94.1333333,151.566667 93.8,152.18 L93.8,152.18 L93.8,150.4 L91.96,150.4 L91.96,161 L93.88,161 Z M104.88,161.12 C105.76,161.12 106.556667,160.973333 107.27,160.68 C107.983333,160.386667 108.58,159.96 109.06,159.4 L109.06,159.4 L108,158.16 C107.226667,159.013333 106.206667,159.44 104.94,159.44 C103.9,159.44 103.03,159.156667 102.33,158.59 C101.63,158.023333 101.22,157.273333 101.1,156.34 L101.1,156.34 L109.7,156.34 C109.726667,156.1 109.74,155.906667 109.74,155.76 C109.74,154.693333 109.516667,153.746667 109.07,152.92 C108.623333,152.093333 108.003333,151.45 107.21,150.99 C106.416667,150.53 105.513333,150.3 104.5,150.3 C103.486667,150.3 102.576667,150.53 101.77,150.99 C100.963333,151.45 100.33,152.093333 99.87,152.92 C99.41,153.746667 99.18,154.673333 99.18,155.7 C99.18,156.74 99.4166667,157.673333 99.89,158.5 C100.363333,159.326667 101.033333,159.97 101.9,160.43 C102.766667,160.89 103.76,161.12 104.88,161.12 Z M107.9,154.96 L101.1,154.96 C101.206667,154.053333 101.57,153.32 102.19,152.76 C102.81,152.2 103.58,151.92 104.5,151.92 C105.42,151.92 106.19,152.203333 106.81,152.77 C107.43,153.336667 107.793333,154.066667 107.9,154.96 L107.9,154.96 Z M116.04,161.12 C116.48,161.12 116.906667,161.056667 117.32,160.93 C117.733333,160.803333 118.08,160.62 118.36,160.38 L118.36,160.38 L117.76,159 C117.346667,159.333333 116.846667,159.5 116.26,159.5 C115.726667,159.5 115.316667,159.346667 115.03,159.04 C114.743333,158.733333 114.6,158.293333 114.6,157.72 L114.6,157.72 L114.6,151.98 L117.64,151.98 L117.64,150.4 L114.6,150.4 L114.6,148.08 L112.68,148.08 L112.68,150.4 L110.88,150.4 L110.88,151.98 L112.68,151.98 L112.68,157.8 C112.68,158.866667 112.973333,159.686667 113.56,160.26 C114.146667,160.833333 114.973333,161.12 116.04,161.12 Z M123.78,161.12 C124.593333,161.12 125.296667,160.99 125.89,160.73 C126.483333,160.47 126.94,160.093333 127.26,159.6 L127.26,159.6 L127.26,161 L129.08,161 L129.08,154.6 C129.08,153.173333 128.69,152.1 127.91,151.38 C127.13,150.66 126.006667,150.3 124.54,150.3 C123.686667,150.3 122.88,150.416667 122.12,150.65 C121.36,150.883333 120.706667,151.22 120.16,151.66 L120.16,151.66 L120.96,153.1 C121.373333,152.753333 121.88,152.476667 122.48,152.27 C123.08,152.063333 123.693333,151.96 124.32,151.96 C125.253333,151.96 125.96,152.18 126.44,152.62 C126.92,153.06 127.16,153.693333 127.16,154.52 L127.16,154.52 L127.16,154.9 L124.12,154.9 C122.64,154.9 121.56,155.183333 120.88,155.75 C120.2,156.316667 119.86,157.066667 119.86,158 C119.86,158.933333 120.216667,159.686667 120.93,160.26 C121.643333,160.833333 122.593333,161.12 123.78,161.12 Z M124.1,159.64 C123.366667,159.64 122.793333,159.486667 122.38,159.18 C121.966667,158.873333 121.76,158.453333 121.76,157.92 C121.76,156.826667 122.573333,156.28 124.2,156.28 L124.2,156.28 L127.16,156.28 L127.16,157.76 C126.92,158.36 126.533333,158.823333 126,159.15 C125.466667,159.476667 124.833333,159.64 124.1,159.64 Z M137.28,165 C139.106667,165 140.48,164.556667 141.4,163.67 C142.32,162.783333 142.78,161.413333 142.78,159.56 L142.78,159.56 L142.78,150.4 L140.96,150.4 L140.96,152.04 C140.52,151.466667 139.956667,151.033333 139.27,150.74 C138.583333,150.446667 137.84,150.3 137.04,150.3 C136.026667,150.3 135.11,150.513333 134.29,150.94 C133.47,151.366667 132.826667,151.97 132.36,152.75 C131.893333,153.53 131.66,154.42 131.66,155.42 C131.66,156.42 131.893333,157.31 132.36,158.09 C132.826667,158.87 133.47,159.476667 134.29,159.91 C135.11,160.343333 136.026667,160.56 137.04,160.56 C137.813333,160.56 138.53,160.423333 139.19,160.15 C139.85,159.876667 140.406667,159.466667 140.86,158.92 L140.86,158.92 L140.86,159.76 C140.86,160.96 140.563333,161.853333 139.97,162.44 C139.376667,163.026667 138.46,163.32 137.22,163.32 C136.446667,163.32 135.696667,163.196667 134.97,162.95 C134.243333,162.703333 133.633333,162.366667 133.14,161.94 L133.14,161.94 L132.22,163.42 C132.78,163.926667 133.513333,164.316667 134.42,164.59 C135.326667,164.863333 136.28,165 137.28,165 Z M137.26,158.88 C136.553333,158.88 135.923333,158.733333 135.37,158.44 C134.816667,158.146667 134.383333,157.736667 134.07,157.21 C133.756667,156.683333 133.6,156.086667 133.6,155.42 C133.6,154.393333 133.94,153.563333 134.62,152.93 C135.3,152.296667 136.18,151.98 137.26,151.98 C138.326667,151.98 139.2,152.296667 139.88,152.93 C140.56,153.563333 140.9,154.393333 140.9,155.42 C140.9,156.086667 140.743333,156.683333 140.43,157.21 C140.116667,157.736667 139.683333,158.146667 139.13,158.44 C138.576667,158.733333 137.953333,158.88 137.26,158.88 Z" id="Egetföretag" fill="#44374C"></path>
            </g>
            <g id="Center" transform="translate(144.000000, 0.000000)">
                <path d="M115.479902,3.71383345 C115.570643,3.7436229 115.65991,3.77772852 115.747398,3.8160338 C117.889879,4.75408909 119.53352,6.55743328 120.269455,8.77747249 C120.973392,10.9009883 120.783552,13.2148439 119.752388,15.1904464 L119.708,15.271 L119.705,15.2757755 L119.606565,15.4577005 L119.606565,15.4577005 L119.706,15.2747755 L111.615,34.564 L111.872967,34.7592035 C125.687481,45.3535807 137.862962,64.5531408 138.359277,80.5293217 L138.370892,81.0223896 L138.375,81.5341667 C138.375,100.924778 117.98427,117.346667 96,117.346667 C74.0157305,117.346667 53.625,100.924778 53.625,81.5341667 C53.625,65.5272226 65.7749305,45.9720845 79.7043938,35.0864063 L80.1270328,34.7592035 L80.384,34.564 L72.294,15.276 L72.2505877,15.1970721 C71.3154566,13.4155075 71.0654654,11.3565125 71.5403529,9.40906087 L71.6262194,9.0855851 L71.7155092,8.79503032 C72.4423928,6.57593865 74.0756264,4.76882355 76.2101209,3.82190182 C76.3018579,3.78120473 76.3955792,3.74513659 76.4909314,3.71383345 C89.1547751,-0.443577136 102.816058,-0.443577136 115.479902,3.71383345 Z M61,23.8466667 C62.6568542,23.8466667 64,25.1898124 64,26.8466667 C64,28.4443476 62.75108,29.7503275 61.1762728,29.841574 L61,29.8466667 L47.480653,29.8466667 C46.9693832,29.8470611 46.5005498,30.1310993 46.2634751,30.5840812 C46.0501079,30.991765 46.0561784,31.4756985 46.2710253,31.8738096 L46.3503588,32.0031124 L53.7236922,42.6372791 C54.7054538,44.0532217 54.2955075,46.0032662 52.8267157,46.9040436 C41.310296,53.9668078 34.0438512,66.2628008 33.3945657,79.7347477 L33.375,80.194 L33.3768523,80.6096484 C33.4010578,83.6689747 33.6625462,86.5502171 34.1639954,89.2039763 L34.3216316,89.9932301 C36.4645574,100.163527 42.2613609,106.798668 51.8709015,106.968334 L52.25,106.971667 C53.9068542,106.971667 55.25,108.314812 55.25,109.971667 C55.25,111.628521 53.9068542,112.971667 52.25,112.971667 C43.0572443,112.971667 36.2968477,108.654885 32.1264613,101.135215 C28.9904508,95.4806397 27.4659163,88.2433553 27.3789506,80.8157248 L27.375,80.14 L27.3769051,80.0331023 C27.891317,65.6057009 35.0235547,52.2979389 46.577907,43.8731919 L47.045,43.536 L41.4186803,35.4205009 C39.9112525,33.2438048 39.6900884,30.4330996 40.8211512,28.0549894 L40.9475138,27.8018959 C42.17671,25.4532532 44.5674857,23.95136 47.2046788,23.8519272 L47.4783333,23.8466667 L61,23.8466667 Z M144.523986,23.8466667 C147.266252,23.848788 149.780904,25.3722655 151.052486,27.8018959 C152.280221,30.1477459 152.153373,32.964284 150.73704,35.1861541 L150.580359,35.4218876 L144.954,43.536 L144.975519,43.5515789 C156.64837,51.8543943 163.923135,65.0931003 164.601009,79.499023 L164.623095,80.0331023 L164.625,80.14 C164.625,87.8032786 163.10458,95.3092889 159.873539,101.135215 C155.703152,108.654885 148.942756,112.971667 139.75,112.971667 C138.093146,112.971667 136.75,111.628521 136.75,109.971667 C136.75,108.314812 138.093146,106.971667 139.75,106.971667 C149.530456,106.971667 155.439997,100.372215 157.641,90.1685034 L157.805004,89.3661667 C157.857172,89.0963245 157.90684,88.8241032 157.954013,88.5495552 L158.088044,87.7189838 C158.425506,85.4857937 158.603388,83.1070576 158.623148,80.6096484 L158.625,80.214 L158.605434,79.7347477 C157.964368,66.4333317 150.872604,54.2782872 139.608569,47.1747571 L139.173284,46.9040436 C137.756949,46.0354368 137.325179,44.1911722 138.176429,42.7909589 L138.276308,42.6372791 L145.64868,32.0044991 C145.939763,31.5841807 145.9736,31.0370631 145.736525,30.5840812 C145.521002,30.1722795 145.113944,29.9001006 144.659333,29.8537206 L144.521667,29.8466667 L131,29.8466667 C129.343146,29.8466667 128,28.5035209 128,26.8466667 C128,25.2489858 129.24892,23.9430058 130.823727,23.8517594 L131,23.8466667 L144.523986,23.8466667 Z M106.978278,38.5964683 L85.0217223,38.5964683 C71.7898601,48.1135709 59.625,67.009211 59.625,81.5341667 C59.625,97.2904585 77.0783121,111.346667 96,111.346667 C114.921688,111.346667 132.375,97.2904585 132.375,81.5341667 C132.375,67.009211 120.21014,48.1135709 106.978278,38.5964683 Z M97.0908333,50.0966667 C98.6885142,50.0966667 99.9944942,51.3455866 100.085741,52.9203939 L100.090833,53.0966667 L100.090711,56.2931331 C104.120574,56.9258927 107.800642,59.0890135 110.317357,62.399361 C111.320107,63.7183223 111.063767,65.600441 109.744806,66.6031907 C108.425844,67.6059405 106.543726,67.3496003 105.540976,66.030639 C103.637874,63.5274044 100.668644,62.0755192 97.536845,62.1005022 L97.0908333,62.1108333 C91.9491228,62.1108333 88.0625,65.0251496 88.0625,68.135 C88.0625,71.1886121 91.799302,74.0527536 96.7955051,74.1617836 L97.0908333,74.165 C105.238294,74.165 112.125,79.3225363 112.125,86.1833333 C112.125,92.1827339 106.858458,96.8877813 100.09047,97.9754339 L100.090833,101.221667 C100.090833,102.878521 98.7476876,104.221667 97.0908333,104.221667 C95.4931524,104.221667 94.1871725,102.972747 94.095926,101.397939 L94.0908333,101.221667 L94.0903161,98.028137 C90.1815475,97.4112093 86.6024995,95.3565086 84.093508,92.2130847 L83.8650153,91.9199006 C82.8617529,90.6013292 83.1173613,88.719111 84.4359327,87.7158486 C85.7545041,86.7125862 87.6367223,86.9681947 88.6399847,88.2867661 C90.5450997,90.7906276 93.5148538,92.2443131 96.6484382,92.2231141 L97.0908333,92.2133333 C102.235768,92.2133333 106.125,89.2954328 106.125,86.1833333 C106.125,83.1347094 102.38746,80.2769939 97.3864491,80.1682092 L97.0908333,80.165 C88.9464751,80.165 82.0625,74.9968297 82.0625,68.135 C82.0625,62.1373546 87.3263463,57.436234 94.0904986,56.3488574 L94.0908333,53.0966667 C94.0908333,51.4398124 95.4339791,50.0966667 97.0908333,50.0966667 Z M78.4727836,9.39082263 C78.0852016,9.60358666 77.7700198,9.92531399 77.5651323,10.314076 L77.4841866,10.4846702 L77.4174092,10.6627393 C77.2389923,11.2074254 77.2758389,11.7971979 77.5157412,12.3125629 L77.6032124,12.4814315 L77.6899215,12.644222 L77.7664629,12.8120334 L86.065,32.5957755 L105.934,32.5957755 L114.233537,12.8120334 C114.256894,12.7563512 114.281922,12.7013996 114.308584,12.6472527 L114.393435,12.4872995 C114.709221,11.933087 114.774933,11.2708844 114.574223,10.6654192 C114.393585,10.1205005 114.012426,9.66763346 113.512036,9.39600681 L113.434,9.358 L112.959474,9.20577982 C101.91124,5.72577407 90.0595938,5.72577407 79.0113593,9.20577982 L78.54,9.357 L78.4727836,9.39082263 Z" id="money" fill="#44374C"></path>
                <path d="M24.813,207.98 C32.457,207.98 38.337,206.379333 42.453,203.178 C46.569,199.976667 48.627,195.370667 48.627,189.36 C48.627,183.349333 45.883,179.037333 40.395,176.424 L40.395,176.424 L40.395,176.032 C43.139,174.202667 45.0663333,172.226333 46.177,170.103 C47.2876667,167.979667 47.843,165.121333 47.843,161.528 C47.843,156.366667 45.785,152.348667 41.669,149.474 C37.553,146.599333 31.8526667,145.162 24.568,145.162 C17.2833333,145.162 11.5503333,146.664667 7.369,149.67 C3.18766667,152.675333 1.097,156.758667 1.097,161.92 C1.097,165.382667 1.70133333,168.224667 2.91,170.446 C4.11866667,172.667333 6.06233333,174.692667 8.741,176.522 L8.741,176.522 L8.741,176.914 C5.93166667,178.220667 3.85733333,179.886667 2.518,181.912 C1.17866667,183.937333 0.509,186.648667 0.509,190.046 C0.509,195.860667 2.64866667,200.303333 6.928,203.374 C11.2073333,206.444667 17.169,207.98 24.813,207.98 Z M25.597,169.76 C23.8983333,168.649333 22.6896667,167.702 21.971,166.918 C21.2523333,166.134 20.893,165.088667 20.893,163.782 C20.893,161.299333 22.2323333,160.058 24.911,160.058 C27.7856667,160.058 29.223,161.528 29.223,164.468 C29.223,166.101333 28.0143333,167.865333 25.597,169.76 Z M24.715,194.162 C21.775,194.162 20.305,192.430667 20.305,188.968 C20.305,187.204 21.383,185.472667 23.539,183.774 C25.4336667,184.95 26.773,185.979 27.557,186.861 C28.341,187.743 28.733,188.837333 28.733,190.144 C28.733,192.822667 27.3936667,194.162 24.715,194.162 Z M76.508,207.98 C86.406,207.98 92.9883333,205.236 96.255,199.748 C98.019,196.938667 99.2276667,193.737333 99.881,190.144 C100.534333,186.550667 100.861,182.059 100.861,176.669 C100.861,171.279 100.534333,166.787333 99.881,163.194 C99.2276667,159.600667 98.019,156.366667 96.255,153.492 C92.923,147.938667 86.3243333,145.162 76.459,145.162 C66.5936667,145.162 59.9623333,147.938667 56.565,153.492 C54.801,156.366667 53.5923333,159.617 52.939,163.243 C52.2856667,166.869 51.959,171.360667 51.959,176.718 C51.959,182.075333 52.302,186.550667 52.988,190.144 C53.674,193.737333 54.899,196.938667 56.663,199.748 C59.995,205.236 66.61,207.98 76.508,207.98 Z M76.753,193.378 C75.5116667,193.378 74.548,193.100333 73.862,192.545 C73.176,191.989667 72.6533333,190.715667 72.294,188.723 C71.9346667,186.730333 71.755,183.022667 71.755,177.6 L71.755,171.426 C71.755,168.420667 71.951,166.33 72.343,165.154 C72.539,164.566 72.8003333,163.929 73.127,163.243 C73.4536667,162.557 73.8783333,162.099667 74.401,161.871 C74.9236667,161.642333 75.675,161.528 76.655,161.528 C77.635,161.528 78.4843333,161.789333 79.203,162.312 C80.575,163.357333 81.261,167.832667 81.261,175.738 L81.261,175.738 L81.261,177.6 C81.261,183.806667 81.0323333,187.988 80.575,190.144 C80.1176667,192.3 78.8436667,193.378 76.753,193.378 Z M121.98,189.164 C128.676667,189.164 133.184667,187.432667 135.504,183.97 C137.823333,180.507333 138.983,174.937667 138.983,167.261 C138.983,159.584333 137.823333,153.982 135.504,150.454 C133.184667,146.926 128.660333,145.162 121.931,145.162 C115.201667,145.162 110.661,146.942333 108.309,150.503 C105.957,154.063667 104.781,159.649667 104.781,167.261 C104.781,174.872333 105.973333,180.425667 108.358,183.921 C110.742667,187.416333 115.283333,189.164 121.98,189.164 Z M145.843,207 L165.345,146.142 L150.841,146.142 L131.437,207 L145.843,207 Z M122.127,178.972 C121.277667,178.972 120.608,178.776 120.118,178.384 C119.628,177.992 119.252333,177.142667 118.991,175.836 C118.729667,174.529333 118.599,171.883333 118.599,167.898 L118.599858,166.207255 C118.622153,160.850085 119.0792,157.853 119.971,157.216 C120.428333,156.824 121.163333,156.628 122.176,156.628 C123.188667,156.628 123.842,156.954667 124.136,157.608 C124.43,158.261333 124.691333,158.882 124.92,159.47 C125.148667,160.058 125.263,161.462667 125.263,163.684 L125.263,163.684 L125.263,167.898 C125.263,172.21 125.099667,175.133667 124.773,176.669 C124.446333,178.204333 123.564333,178.972 122.127,178.972 Z M174.9,207.98 C181.596667,207.98 186.104667,206.248667 188.424,202.786 C190.743333,199.323333 191.903,193.753667 191.903,186.077 C191.903,178.400333 190.743333,172.798 188.424,169.27 C186.104667,165.742 181.580333,163.978 174.851,163.978 C168.121667,163.978 163.581,165.758333 161.229,169.319 C158.877,172.879667 157.701,178.465667 157.701,186.077 C157.701,193.688333 158.893333,199.241667 161.278,202.737 C163.662667,206.232333 168.203333,207.98 174.9,207.98 Z M175.047,197.788 C174.197667,197.788 173.528,197.592 173.038,197.2 C172.548,196.808 172.172333,195.958667 171.911,194.652 C171.649667,193.345333 171.519,190.699333 171.519,186.714 L171.519858,185.023255 C171.542153,179.666085 171.9992,176.669 172.891,176.032 C173.348333,175.64 174.083333,175.444 175.096,175.444 C176.108667,175.444 176.762,175.770667 177.056,176.424 C177.35,177.077333 177.611333,177.698 177.84,178.286 C178.068667,178.874 178.183,180.278667 178.183,182.5 L178.183,182.5 L178.183,186.714 C178.183,191.026 178.019667,193.949667 177.693,195.485 C177.366333,197.020333 176.484333,197.788 175.047,197.788 Z" id="80%" fill="#DA9926"></path>
            </g>
        </g>
    </g>
</svg>