<svg xmlns="http://www.w3.org/2000/svg" viewBox="0 0 153.44 49.74">
  <defs>
    <style>
      .cls-1{fill:#fff}
    </style>
  </defs>
  <g id="Lager_2" data-name="Lager 2">
    <g id="Layer_1" data-name="Layer 1">
      <path d="M.88 39.36c-.59 0-.88-.83-.88-2.49q0-7.57 4.69-22.68A53.53 53.53 0 0 0 6 7.32L6.44 7c1.35.15 2.12.44 2.34.87.66 0 1.63 1 2.94 2.92.19 0 .29.25.29.74V13q-1.17 4.86-4.69 15.81 0 .68-1.91 4.24a27 27 0 0 0-1 4.83q-.48 1.17-2.34 1.17c0-.15-.15-.29-.45-.45h-.14c0 .51-.2.76-.6.76zM32 45.36h-.6a5 5 0 0 1-2.63-1.48c-.25 0-.59-.34-1-1q-.91-.93-3.22-7.17a38.51 38.51 0 0 1-.73-8.35.13.13 0 0 0-.14-.14l.14-.89a73.89 73.89 0 0 1 .44-9.5h-.44c-.12.28-.8 1.35-2.05 3.21a21.56 21.56 0 0 0-2.49 5.42 38.72 38.72 0 0 0-2.49 4.82A29 29 0 0 0 14.28 36c-.56 2.92-1.25 4.39-2.06 4.39a1 1 0 0 1-.43.15c-1.36-.37-2-.76-2-1.19 0-.61-.39-1.1-1.17-1.46L7.84 35v-.29a79.16 79.16 0 0 0 2.49-8.93 41.25 41.25 0 0 0 1.6-5.55q2.64-8.82 2.65-13.47a1.28 1.28 0 0 1 .13-.59 4.53 4.53 0 0 1-.43-1.46 2.51 2.51 0 0 1 1.17-.44h.43a4.81 4.81 0 0 0 2.06.89 7.8 7.8 0 0 0 1.89 1.17 3 3 0 0 1 1.46 2.34 10 10 0 0 0 .31 1.75l-.15.87h.29a14.83 14.83 0 0 1 1.91-3.07c0-1 .53-1.46 1.6-1.46a1.89 1.89 0 0 1 1 .88l1-.14h.43c0 .58.34.87 1 .87l.14.3h-.14c0 .14.39.48 1.17 1a18.12 18.12 0 0 0 1 2.92c-.3 3.85-.65 7-1 9.5l.13.6q-.72 3.64-1 6.13a1.05 1.05 0 0 0 .14.45 1.15 1.15 0 0 1-.14.43l.14 1.77-.14.87a8.56 8.56 0 0 1 .14 1.46v.43h.29c0-.26.39-.65 1.18-1.16q.66-.66 5-10l3.66-6.74A79.62 79.62 0 0 1 44 8.63a23.5 23.5 0 0 1 4.38-5.28h.15l.14.74c0 .62-.54 1.46-1.61 2.49a10.67 10.67 0 0 1-1.76 2.18 7.85 7.85 0 0 1-1.46 2.49 12.67 12.67 0 0 1-1.75 2.94 35.89 35.89 0 0 0-1.61 5.26 4.4 4.4 0 0 1-1.6 1.75 1.21 1.21 0 0 0-.16.45c.11.29.2.43.3.43 1-.23 1.46-.62 1.46-1.17.24 0 .49-.49.74-1.46v-.29c0-.2-.1-.29-.3-.29.1-.89.24-1.33.43-1.33s.3.2.3.59h.29q.32-.11 1.32-2.19a.39.39 0 0 0-.45-.44v-.14a10.81 10.81 0 0 0 2.36-2.78v-.16c0-.13-.15-.27-.45-.43a1.43 1.43 0 0 1 .74-.87h.14l.29.13.29-.43v-.15l-.18-.29c.23 0 .47-.39.73-1.17l1.5-1.91c.2 0 .29.13.29.3v1.32a1.14 1.14 0 0 1-.15.58 2.8 2.8 0 0 1 .29 1.32 3.69 3.69 0 0 1-1.17 2.34A9.44 9.44 0 0 0 46 15.94a11.93 11.93 0 0 1-1.61 2.49 7.41 7.41 0 0 1-1.17 2.77 72 72 0 0 1-3.8 8.2 68.09 68.09 0 0 0-3.81 8.93 18.32 18.32 0 0 0-1.61 3.8 4.4 4.4 0 0 0-1 2.49c-.23 0-.57.24-1 .74zM19.4 21.94c.49-1.12.73-1.7.73-1.75a5 5 0 0 1 .29-1.19c-.29 0-.78 1-1.46 2.92zm7.32 13.45l.14-1a.26.26 0 0 1-.29-.29v-.3a.13.13 0 0 1 .15-.15l-.15-.29.15-.88-.29-.14a4.36 4.36 0 0 0-.29 1.31l.29.58a1.18 1.18 0 0 0-.15.59c.19 0 .29.19.29.58zm3.8-3.64a.25.25 0 0 1-.29-.29l1.9-3.95c.2-.69.39-1 .59-1h.43q-1.77 4.74-2.63 5.24zm2.2 1.89a31.28 31.28 0 0 1 2.2-3.37c0-.78.33-1.17 1-1.17a5.38 5.38 0 0 0 1.17-2.33l-.29-.16h-.14c0 .52-.54 1.11-1.61 1.77a19.16 19.16 0 0 1-1.9 3.62 5.48 5.48 0 0 1-.59 1.6z" class="cls-1"/>
      <path d="M48.4 48.43h-.15a.26.26 0 0 1-.3-.29 13.18 13.18 0 0 1 2.65-6.29c0-.68.88-2 2.47-3.81a2.36 2.36 0 0 1 1-1.31c0-.39.88-1.37 2.63-2.94 0-.47 1.91-2.41 5.72-5.84 2.92-2.66 4.39-4.18 4.39-4.53q4.81-5.37 4.82-5.86h-.14q-.39 0-9.22 3.5a32.61 32.61 0 0 1-4.38 1.62v-.16A8 8 0 0 1 55 23c0 .12-.58.32-1.75.58h-.45q-4.19 0-5.26-2.92A21 21 0 0 1 46.36 17v-.44q0-1.1 4.38-4.83Q53.44 9 63.33 1.91A11.18 11.18 0 0 1 68.88 0a2.75 2.75 0 0 1 2.06 1 3.6 3.6 0 0 1 2.18 1.31q1.2.21 4 2.78l.44 1.32c-.19 1-.68 1.46-1.46 1.46h-.15a14.78 14.78 0 0 1-3.51-.74 1.06 1.06 0 0 1-.58.16l-.59-.16a16.24 16.24 0 0 0-3.36 2.5h-.16a.26.26 0 0 1-.29-.3 1.64 1.64 0 0 0 .45-1h-.16q-3.1 1.06-8.33 5.86a3.35 3.35 0 0 0-1.46 1.17h.14q9.8-3.66 12.88-3.66c0-.09.2-.14.58-.14h2.34c1.66.66 2.49 1.24 2.49 1.75a3 3 0 0 1 2.48 1.62l-.14.29v.43c.39 0 .58.29.58.88V17a11 11 0 0 1-1.17 4.39 54.8 54.8 0 0 1-4.82 5.41q-.34 0-3.37 3.52c-.19 0-1.71 1.41-4.54 4.24q-.42 0-4.82 4.54c-.11 0-.45.34-1 1-.18 0-.71.69-1.6 2.06-.41 0-1.59 1.13-3.52 3.37-.27 0-.91.58-1.91 1.75a1.42 1.42 0 0 0-.72.43c-.3 0-.45-.14-.45-.43l-1 .14-.45-.29h-.43c-.08.37-.42.81-1.11 1.3zm9.23-9.65c.16 0 .45-.3.87-.88.21 0 .89-.73 2-2.2a53.68 53.68 0 0 0 5.26-4.83v-.29h-.3c-.6.59-1 .88-1.3.88V31a5.67 5.67 0 0 1 .87-.87v-.3a5.48 5.48 0 0 1-1.7 1.17c-.06.42-.79 1.15-2.2 2.2 0 .21-.63.79-1.91 1.75-.77.66-1.16 1.15-1.16 1.48-.36 0-.8.43-1.33 1.31v.15h.16a7.66 7.66 0 0 1 2-1.75c.49-.69 1-1 1.46-1q0-.45.3-.45H61V35a34.48 34.48 0 0 0-3.51 3.82zM76.52 45.06c-.58-.09-.87-.33-.87-.73L78 28.67a185.31 185.31 0 0 1 3.35-19.89A41.9 41.9 0 0 0 83 1a1.71 1.71 0 0 1 .88-.31 13.87 13.87 0 0 1 5.41 1.62c.88.65 1.33 1.24 1.33 1.75q0 1.77-3.24 12.44a41.2 41.2 0 0 0-1.59 5.41q-1.08 0-2.06 9.52a4.78 4.78 0 0 0-.43 1.61.26.26 0 0 1-.3-.29c0-.51.05-1.34.14-2.49q-.48 0-1.6 8a7.75 7.75 0 0 0-.87 2.2 1 1 0 0 1 .13.44 6.08 6.08 0 0 1-1.32 2.93L79 43.6a8.61 8.61 0 0 1-2.48 1.46zM80 36.29a10.11 10.11 0 0 1 .59-2.5q-.21-.72-.45-.72a23.7 23.7 0 0 0-.44 3.22zm.29-3.37c.2 0 .34-.54.43-1.62.3 0 .5-.82.59-2.47v-.16c-.26 0-.6 1.08-1 3.23-.1 0-.15.15-.15.43zm1.31 8.78a.26.26 0 0 1-.29-.3 10.59 10.59 0 0 1 .45-1.9h.29v.89a5.43 5.43 0 0 1-.41 1.31zM89.5 49.74h-.29c-1.07-.37-1.6-.66-1.6-.88-1.27-1.27-1.91-2.29-1.91-3.07-.1 0-.15-.24-.15-.73q0-4.35 4.39-7.9 1.62-1.56 1.62-6.16a115 115 0 0 1 2.77-13.9c0-.14-.59-.34-1.76-.58a2.57 2.57 0 0 0-1.17-1l-.87.15h-.16a3.57 3.57 0 0 1-1.3-2.67c0-1.1.87-2.27 2.63-3.51a28.36 28.36 0 0 0 4.24-2.2c2.14-.49 3.21-1.37 3.21-2.63l.74-.44a2.16 2.16 0 0 1 1.75 1l.3.15a20.64 20.64 0 0 1 4.24-.37h.74l.87.15.3-.15c1.24 0 3.33.72 6.29 2 2.43.62 3.65 1.54 3.65 2.78 1.19.56 2.22 1.87 3.08 4v.15q0 1.41-4.69 8.47l-3.21 2.94a23.72 23.72 0 0 0-4.54 3.66c-.63 0-1.61.72-2.92 2.18L99.15 37c-.17 0-.51.24-1 .74H98a14.33 14.33 0 0 1 1.9-2.5c.35 0 .64-.24.88-.73v-.14h-.29l-.59.43a1.09 1.09 0 0 0-.44-.14c-.13 0-.37.24-.73.72a4.85 4.85 0 0 0-.87.9h-.74c.06-.36.45-.8 1.17-1.33a35 35 0 0 0 3.07-3.21 2.28 2.28 0 0 0 1.32-.89c.65-.87 1.23-1.31 1.76-1.31q0-.6 3.36-3.37a37.67 37.67 0 0 1 3.37-4.24v-.15c-.28 0-2.71 2.24-7.32 6.73Q99.6 32 98.28 33.35a3.69 3.69 0 0 0-1.89 3.37c-.2 0-.3.12-.3.29v.44q0 .3.3.3h.29l.29-.16.14.29-.59.74H97c0-.39.18-.58.43-.58h.45c-1.77 1.59-2.65 2.61-2.65 3.07-.25 1.56-1 2.34-2.33 2.34a9.3 9.3 0 0 0-2.63 2.92l-.16.29h.16l-.45.88.29.58c-.11 1.08-.32 1.62-.61 1.62zm-.29-4.09l1.16-2.06c-.12-.87-.46-1.31-1-1.31s-1.14.93-1.46 2.78c-.1 0-.15 0-.15.14l.29.16a1 1 0 0 1 .44-.16 1.09 1.09 0 0 1 .14.45zm8.93-16.39q0-.3 9.79-9.52 5.64-5.8 6.31-8.92v-.15a11.87 11.87 0 0 0-3.82-.72 14 14 0 0 0-6.42 1.46 86.13 86.13 0 0 0-5 12.87 21.43 21.43 0 0 0-1.32 5z" class="cls-1"/>
      <path d="M124.48 49q-1.92-.39-2.34-1.17c-.29 0-.58-.35-.88-1-.2 0-.59-.44-1.17-1.31a3.38 3.38 0 0 1-1.32-2.06q1.89-3.24 4.09-12.28a16.52 16.52 0 0 1 .45-2.34 9.91 9.91 0 0 1-.59-2.65 2.07 2.07 0 0 1 1-1.75 2.37 2.37 0 0 0 .3-1.17V23a12 12 0 0 0-2.2-1.75c-1.76-1.92-2.63-3.39-2.63-4.4-.1 0-.16-.14-.16-.43q.38-2.13 3.66-4.4c1.56-.65 2.34-1.24 2.34-1.75l.15-.58a3.33 3.33 0 0 0-.29-1 5.37 5.37 0 0 1 .29-1.17 7.28 7.28 0 0 1-.15-1.31V5.7c.1-.28.4-.43.88-.43.1 0 .15.05.15.14a6.08 6.08 0 0 1 2.52-.41c0 .19.78.44 2.34.73 1 .79 1.46 1.43 1.46 1.91l-.14.72c.09 0 .14.05.14.16l9.22-1.76h.14c.59 0 .88.34.88 1a7.12 7.12 0 0 0 .58 1.61v.13c-.75 1-2.61 1.95-5.55 2.94-3.9 1-5.86 2.05-5.86 3.07l.16.3a16.86 16.86 0 0 0-.45 4 79.93 79.93 0 0 0 14.35-10.1c.61-.78 1.1-1.17 1.46-1.17a.67.67 0 0 1 .58.72l-.15.89c.45 0 .79.83 1 2.48.09 0 .14.05.14.15q-.84 3-5.41 6.29a45.31 45.31 0 0 1-6.29 4.69 45.71 45.71 0 0 1-6.58 3.95 3.52 3.52 0 0 0-1 1.89l.15.88-.45.29.16.74v.74l-.59 1.59.14.3-.72 2.86a1.62 1.62 0 0 0 .88.43c1.05-.6 3.25-2.11 6.58-4.53a58.31 58.31 0 0 0 5.7-3.37c0-.15.25-.39.74-.72a1.75 1.75 0 0 0 .88.29c0-.16.43-.51 1.3-1l.29.15h.3c0-.36.44-.61 1.32-.73 0-.17.63-.31 1.9-.43q5.26 1.22 5.26 2a.67.67 0 0 1-.72.58v1a1.15 1.15 0 0 0-.45.15 2.38 2.38 0 0 0-.87-.29c-.22.7-1.29 1.38-3.22 2.05a43 43 0 0 0-10.1 6.28q-4.58 3.15-11.85 8.65c-.46 0-.9.43-1.31 1.3a1 1 0 0 0-.44.19z" class="cls-1"/>
    </g>
  </g>
</svg>
