<svg xmlns="http://www.w3.org/2000/svg" viewBox="0 0 69 100">
<defs><style>.coffee{fill:#44374c;}</style></defs>
 <g>
  <g id="svg_16">
   <path class="coffee" id="svg_1" d="m29.256,28.793c-0.541,0 -1.085,-0.17 -1.548,-0.524c-1.122,-0.855 -1.338,-2.458 -0.482,-3.581c1.299,-1.703 1.426,-3.948 1.305,-5.532c-0.124,-1.608 -0.514,-3.239 -0.924,-4.967c-0.172,-0.721 -0.344,-1.443 -0.497,-2.167c-0.316,-1.482 -0.569,-3.085 -0.294,-4.76c0.354,-2.143 1.557,-3.975 3.302,-5.023c1.209,-0.728 2.778,-0.336 3.506,0.874c0.727,1.209 0.335,2.778 -0.874,3.506c-0.651,0.392 -0.841,1.161 -0.892,1.473c-0.131,0.793 0.005,1.719 0.249,2.867c0.145,0.683 0.308,1.364 0.47,2.045c0.439,1.844 0.894,3.75 1.048,5.76c0.272,3.541 -0.536,6.66 -2.336,9.022c-0.502,0.661 -1.264,1.007 -2.033,1.007z"/>
  </g>
  <g id="svg_18">
   <path class="coffee" id="svg_3" d="m14.873,29.269c-0.468,0 -0.941,-0.128 -1.365,-0.398c-1.192,-0.755 -1.545,-2.334 -0.79,-3.525c1.229,-1.939 0.772,-4.633 0.151,-7.457c-0.691,-3.134 -1.636,-7.425 0.464,-11.2c0.686,-1.235 2.239,-1.677 3.474,-0.992c1.233,0.685 1.678,2.241 0.992,3.474c-1.158,2.084 -0.511,5.025 0.061,7.62c0.61,2.773 1.632,7.415 -0.826,11.291c-0.488,0.767 -1.316,1.187 -2.161,1.187z"/>
  </g>
  <g id="svg_20">
   <path class="coffee" id="svg_5" d="m44.443,29.269c-0.468,0 -0.942,-0.128 -1.366,-0.398c-1.191,-0.755 -1.545,-2.334 -0.79,-3.525c1.229,-1.939 0.772,-4.633 0.151,-7.457c-0.69,-3.134 -1.636,-7.425 0.462,-11.199c0.685,-1.235 2.241,-1.681 3.474,-0.993c1.234,0.684 1.677,2.24 0.992,3.473c-1.157,2.085 -0.51,5.025 0.062,7.62c0.61,2.773 1.632,7.415 -0.826,11.291c-0.486,0.768 -1.314,1.188 -2.159,1.188z"/>
  </g>
  <g id="svg_34">
   <path class="coffee" id="svg_7" d="m39.653,91.662l-19.097,0c-9.517,0 -17.259,-7.742 -17.259,-17.259l0,-38.987c0,-1.411 1.144,-2.555 2.555,-2.555l48.504,0c1.412,0 2.555,1.144 2.555,2.555l0,38.988c0.001,9.516 -7.742,17.258 -17.258,17.258zm-31.246,-53.692l0,36.433c0,6.699 5.451,12.149 12.149,12.149l19.097,0c6.699,0 12.149,-5.45 12.149,-12.149l0,-36.433l-43.395,0z"/>
  </g>
  <g id="svg_38">
   <path class="coffee" id="svg_9" d="m58.82,59.222l-4.463,0c-1.411,0 -2.554,-1.144 -2.554,-2.555l0,-14.539c0,-1.412 1.144,-2.555 2.554,-2.555l4.463,0c5.417,0 9.825,4.407 9.825,9.824c0,5.417 -4.408,9.825 -9.825,9.825zm-1.908,-5.11l1.908,0c2.6,0 4.715,-2.115 4.715,-4.714c0,-2.6 -2.115,-4.715 -4.715,-4.715l-1.908,0l0,9.429z"/>
  </g>
  <g id="svg_48">
   <path class="coffee" id="svg_11" d="m49.091,98.886l-37.972,0c-1.411,0 -2.555,-1.144 -2.555,-2.555c0,-1.411 1.144,-2.555 2.555,-2.555l37.972,0c1.411,0 2.555,1.144 2.555,2.555c0,1.411 -1.145,2.555 -2.555,2.555z"/>
  </g>
 </g>
</svg>