<svg xmlns="http://www.w3.org/2000/svg" viewBox="0 0 25.11 24"><defs><style>.cls-1{fill:#fff;}</style></defs><title>Resurs 6</title><g id="Lager_2" data-name="Lager 2"><g id="Layer_1" data-name="Layer 1"><rect class="cls-1" x="0.32" y="7.81" width="5.38" height="16.19"/><path class="cls-1" d="M3,5.6H3A2.81,2.81,0,1,1,3,0,2.81,2.81,0,1,1,3,5.6Z"/><path class="cls-1" d="M25.11,24H19.73V15.34c0-2.18-.78-3.66-2.73-3.66a2.94,2.94,0,0,0-2.76,2A3.67,3.67,0,0,0,14.06,15v9H8.68s.07-14.67,0-16.19h5.38V10.1a5.36,5.36,0,0,1,4.85-2.67c3.54,0,6.2,2.31,6.2,7.29Z"/></g></g></svg>