<svg xmlns="http://www.w3.org/2000/svg" viewBox="0 0 24 19.5"><defs><style>.cls-1{fill:#fff;}</style></defs><title>Resurs 5</title><g id="Lager_2" data-name="Lager 2"><g id="Layer_1" data-name="Layer 1"><path class="cls-1" d="M21.54,4.86c0,.21,0,.42,0,.63a13.91,13.91,0,0,1-14,14A13.92,13.92,0,0,1,0,17.29a9.18,9.18,0,0,0,1.17.07,9.9,9.9,0,0,0,6.12-2.11,4.93,4.93,0,0,1-4.6-3.42,4.73,4.73,0,0,0,.93.09,5,5,0,0,0,1.29-.17A4.93,4.93,0,0,1,1,6.92V6.86a4.86,4.86,0,0,0,2.23.61A4.92,4.92,0,0,1,1.67.9,14,14,0,0,0,11.82,6.05a5.22,5.22,0,0,1-.13-1.13,4.93,4.93,0,0,1,8.52-3.37A10,10,0,0,0,23.34.36a4.94,4.94,0,0,1-2.17,2.72A9.87,9.87,0,0,0,24,2.31,9.94,9.94,0,0,1,21.54,4.86Z"/></g></g></svg>